ExploreSans_Black.ufo
<glyph name="exclam" format="2">
  <advance width="290"/>
  <unicode hex="0021"/>
  <outline>
    <contour>
      <point x="53" y="716" type="line"/>
      <point x="243" y="716" type="line"/>
      <point x="216" y="244" type="line"/>
      <point x="74" y="244" type="line"/>
    </contour>
    <contour>
      <point x="103" y="198"/>
      <point x="187" y="198"/>
      <point x="247" y="137"/>
      <point x="247" y="53"/>
      <point x="187" y="-7"/>
      <point x="103" y="-7"/>
      <point x="43" y="53"/>
      <point x="43" y="137"/>
    </contour>
  </outline>
</glyph>
<glyph name="quotedbl" format="2">
  <advance width="414"/>
  <unicode hex="0022"/>
  <outline>
    <contour>
      <point x="34" y="772" type="line"/>
      <point x="180" y="772" type="line"/>
      <point x="164" y="520" type="line"/>
      <point x="50" y="520" type="line"/>
    </contour>
    <contour>
      <point x="234" y="772" type="line"/>
      <point x="380" y="772" type="line"/>
      <point x="364" y="520" type="line"/>
      <point x="250" y="520" type="line"/>
    </contour>
  </outline>
</glyph>
<glyph name="numbersign" format="2">
  <advance width="676"/>
  <unicode hex="0023"/>
  <outline>
    <contour>
      <point x="212" y="724" type="line"/>
      <point x="378" y="724" type="line"/>
      <point x="343" y="575" type="line"/>
      <point x="435" y="575" type="line"/>
      <point x="470" y="724" type="line"/>
      <point x="636" y="724" type="line"/>
      <point x="601" y="575" type="line"/>
      <point x="652" y="575" type="line"/>
      <point x="652" y="415" type="line"/>
      <point x="563" y="415" type="line"/>
      <point x="538" y="313" type="line"/>
      <point x="652" y="313" type="line"/>
      <point x="652" y="153" type="line"/>
      <point x="500" y="153" type="line"/>
      <point x="464" y="0" type="line"/>
      <point x="298" y="0" type="line"/>
      <point x="334" y="153" type="line"/>
      <point x="242" y="153" type="line"/>
      <point x="206" y="0" type="line"/>
      <point x="40" y="0" type="line"/>
      <point x="76" y="153" type="line"/>
      <point x="24" y="153" type="line"/>
      <point x="24" y="313" type="line"/>
      <point x="114" y="313" type="line"/>
      <point x="139" y="415" type="line"/>
      <point x="24" y="415" type="line"/>
      <point x="24" y="575" type="line"/>
      <point x="177" y="575" type="line"/>
    </contour>
    <contour>
      <point x="372" y="313" type="line"/>
      <point x="397" y="415" type="line"/>
      <point x="305" y="415" type="line"/>
      <point x="280" y="313" type="line"/>
    </contour>
  </outline>
</glyph>
<glyph name="percent" format="2">
  <advance width="830"/>
  <unicode hex="0025"/>
  <outline>
    <contour>
      <point x="542" y="708" type="line"/>
      <point x="691" y="708" type="line"/>
      <point x="284" y="0" type="line"/>
      <point x="134" y="0" type="line"/>
    </contour>
    <contour>
      <point x="549" y="360"/>
      <point x="709" y="360"/>
      <point x="808" y="258"/>
      <point x="808" y="94"/>
      <point x="709" y="-8"/>
      <point x="549" y="-8"/>
      <point x="450" y="94"/>
      <point x="450" y="258"/>
    </contour>
    <contour>
      <point x="689" y="251"/>
      <point x="569" y="251"/>
      <point x="569" y="174" type="qcurve" smooth="yes"/>
      <point x="569" y="100"/>
      <point x="630" y="100" type="qcurve" smooth="yes"/>
      <point x="689" y="100"/>
      <point x="689" y="174" type="qcurve" smooth="yes"/>
    </contour>
    <contour>
      <point x="255" y="608"/>
      <point x="135" y="608"/>
      <point x="135" y="531" type="qcurve" smooth="yes"/>
      <point x="135" y="457"/>
      <point x="196" y="457" type="qcurve" smooth="yes"/>
      <point x="255" y="457"/>
      <point x="255" y="532" type="qcurve" smooth="yes"/>
    </contour>
    <contour>
      <point x="196" y="716" type="qcurve" smooth="yes"/>
      <point x="276" y="716"/>
      <point x="374" y="616"/>
      <point x="374" y="534" type="qcurve" smooth="yes"/>
      <point x="374" y="451"/>
      <point x="274" y="348"/>
      <point x="194" y="348" type="qcurve" smooth="yes"/>
      <point x="115" y="348"/>
      <point x="17" y="451"/>
      <point x="17" y="534" type="qcurve" smooth="yes"/>
      <point x="17" y="616"/>
      <point x="115" y="716"/>
    </contour>
  </outline>
</glyph>
<glyph name="ampersand" format="2">
  <advance width="726"/>
  <unicode hex="0026"/>
  <outline>
    <contour>
      <point x="439" y="291" type="line"/>
      <point x="300" y="291" type="line"/>
      <point x="271" y="284"/>
      <point x="234" y="241"/>
      <point x="234" y="213" type="qcurve" smooth="yes"/>
      <point x="234" y="175"/>
      <point x="283" y="132"/>
      <point x="326" y="132" type="qcurve" smooth="yes"/>
      <point x="395" y="132"/>
      <point x="439" y="185" type="qcurve"/>
    </contour>
    <contour>
      <point x="362" y="716" type="qcurve" smooth="yes"/>
      <point x="509" y="716"/>
      <point x="620" y="635" type="qcurve"/>
      <point x="545" y="520" type="line"/>
      <point x="458" y="578"/>
      <point x="376" y="578" type="qcurve" smooth="yes"/>
      <point x="324" y="578"/>
      <point x="270" y="539"/>
      <point x="270" y="507" type="qcurve" smooth="yes"/>
      <point x="270" y="462"/>
      <point x="322" y="436" type="qcurve"/>
      <point x="700" y="436" type="line"/>
      <point x="700" y="291" type="line"/>
      <point x="611" y="291" type="line"/>
      <point x="611" y="126" type="line"/>
      <point x="705" y="-7" type="line"/>
      <point x="512" y="-7" type="line"/>
      <point x="455" y="80" type="line"/>
      <point x="422" y="40"/>
      <point x="311" y="-8"/>
      <point x="252" y="-8" type="qcurve" smooth="yes"/>
      <point x="150" y="-8"/>
      <point x="33" y="89"/>
      <point x="33" y="185" type="qcurve" smooth="yes"/>
      <point x="33" y="248"/>
      <point x="108" y="348"/>
      <point x="173" y="374" type="qcurve"/>
      <point x="129" y="391"/>
      <point x="79" y="477"/>
      <point x="79" y="534" type="qcurve" smooth="yes"/>
      <point x="79" y="618"/>
      <point x="224" y="716"/>
    </contour>
  </outline>
</glyph>
<glyph name="parenleft" format="2">
  <advance width="400"/>
  <unicode hex="0028"/>
  <outline>
    <contour>
      <point x="197" y="800" type="qcurve"/>
      <point x="381" y="800" type="line"/>
      <point x="311" y="739"/>
      <point x="211" y="526"/>
      <point x="211" y="371" type="qcurve" smooth="yes"/>
      <point x="211" y="212"/>
      <point x="310" y="-12"/>
      <point x="381" y="-64" type="qcurve"/>
      <point x="202" y="-64" type="line"/>
      <point x="116" y="6"/>
      <point x="19" y="228"/>
      <point x="19" y="371" type="qcurve" smooth="yes"/>
      <point x="19" y="502"/>
      <point x="117" y="735"/>
    </contour>
  </outline>
</glyph>
<glyph name="parenright" format="2">
  <advance width="400"/>
  <unicode hex="0029"/>
  <outline>
    <contour>
      <point x="19" y="800" type="qcurve"/>
      <point x="203" y="800" type="line"/>
      <point x="283" y="735"/>
      <point x="381" y="502"/>
      <point x="381" y="371" type="qcurve" smooth="yes"/>
      <point x="381" y="228"/>
      <point x="284" y="6"/>
      <point x="198" y="-64" type="qcurve"/>
      <point x="19" y="-64" type="line"/>
      <point x="90" y="-12"/>
      <point x="189" y="212"/>
      <point x="189" y="371" type="qcurve" smooth="yes"/>
      <point x="189" y="526"/>
      <point x="89" y="739"/>
    </contour>
  </outline>
</glyph>
<glyph name="asterisk" format="2">
  <advance width="533"/>
  <unicode hex="002A"/>
  <outline>
    <contour>
      <point x="199" y="806" type="line"/>
      <point x="314" y="806" type="line"/>
      <point x="314" y="711" type="line"/>
      <point x="307" y="686" type="line"/>
      <point x="332" y="699" type="line"/>
      <point x="430" y="718" type="line"/>
      <point x="456" y="620" type="line"/>
      <point x="345" y="591" type="line"/>
      <point x="318" y="591" type="line"/>
      <point x="341" y="574" type="line"/>
      <point x="407" y="488" type="line"/>
      <point x="320" y="430" type="line"/>
      <point x="264" y="515" type="line"/>
      <point x="256" y="537" type="line"/>
      <point x="248" y="515" type="line"/>
      <point x="192" y="430" type="line"/>
      <point x="105" y="488" type="line"/>
      <point x="172" y="575" type="line"/>
      <point x="191" y="592" type="line"/>
      <point x="164" y="592" type="line"/>
      <point x="57" y="620" type="line"/>
      <point x="82" y="718" type="line"/>
      <point x="184" y="698" type="line"/>
      <point x="205" y="686" type="line"/>
      <point x="199" y="711" type="line"/>
    </contour>
  </outline>
</glyph>
<glyph name="plus" format="2">
  <advance width="564"/>
  <unicode hex="002B"/>
  <outline>
    <contour>
      <point x="218" y="480" type="line"/>
      <point x="346" y="480" type="line"/>
      <point x="346" y="331" type="line"/>
      <point x="500" y="331" type="line"/>
      <point x="500" y="203" type="line"/>
      <point x="346" y="203" type="line"/>
      <point x="346" y="54" type="line"/>
      <point x="218" y="54" type="line"/>
      <point x="218" y="203" type="line"/>
      <point x="64" y="203" type="line"/>
      <point x="64" y="331" type="line"/>
      <point x="218" y="331" type="line"/>
    </contour>
  </outline>
</glyph>
<glyph name="comma" format="2">
  <advance width="170"/>
  <unicode hex="002C"/>
  <outline>
    <contour>
      <point x="24" y="78" type="line"/>
      <point x="153" y="78" type="line"/>
      <point x="106" y="-144" type="line"/>
      <point x="24" y="-144" type="line"/>
    </contour>
  </outline>
</glyph>
<glyph name="hyphen" format="2">
  <advance width="500"/>
  <unicode hex="002D"/>
  <outline>
    <contour>
      <point x="34" y="331" type="line"/>
      <point x="466" y="331" type="line"/>
      <point x="466" y="207" type="line"/>
      <point x="34" y="207" type="line"/>
    </contour>
  </outline>
</glyph>
<glyph name="period" format="2">
  <advance width="241"/>
  <unicode hex="002E"/>
  <outline>
    <contour>
      <point x="81" y="196"/>
      <point x="169" y="196"/>
      <point x="227" y="142"/>
      <point x="227" y="94" type="qcurve" smooth="yes"/>
      <point x="227" y="45"/>
      <point x="169" y="-8"/>
      <point x="81" y="-8"/>
      <point x="23" y="45"/>
      <point x="23" y="94" type="qcurve" smooth="yes"/>
      <point x="23" y="142"/>
    </contour>
  </outline>
</glyph>
<glyph name="slash" format="2">
  <advance width="420"/>
  <unicode hex="002F"/>
  <outline>
    <contour>
      <point x="292" y="772" type="line"/>
      <point x="466" y="772" type="line"/>
      <point x="128" y="-34" type="line"/>
      <point x="-46" y="-34" type="line"/>
    </contour>
  </outline>
</glyph>
<glyph name="zero" format="2">
  <advance width="595"/>
  <unicode hex="0030"/>
  <outline>
    <contour>
      <point x="298" y="556" type="qcurve" smooth="yes"/>
      <point x="250" y="556"/>
      <point x="216" y="461"/>
      <point x="216" y="358" type="qcurve" smooth="yes"/>
      <point x="216" y="249"/>
      <point x="250" y="153"/>
      <point x="297" y="153" type="qcurve" smooth="yes"/>
      <point x="346" y="153"/>
      <point x="380" y="249"/>
      <point x="380" y="361" type="qcurve" smooth="yes"/>
      <point x="380" y="463"/>
      <point x="347" y="556"/>
    </contour>
    <contour>
      <point x="171" y="716"/>
      <point x="427" y="716"/>
      <point x="571" y="529"/>
      <point x="571" y="183"/>
      <point x="426" y="-7"/>
      <point x="170" y="-7"/>
      <point x="24" y="181"/>
      <point x="24" y="355" type="qcurve" smooth="yes"/>
      <point x="24" y="528"/>
    </contour>
  </outline>
</glyph>
<glyph name="one" format="2">
  <advance width="626"/>
  <unicode hex="0031"/>
  <outline>
    <contour>
      <point x="304" y="708" type="line"/>
      <point x="432" y="708" type="line"/>
      <point x="432" y="160" type="line"/>
      <point x="583" y="160" type="line"/>
      <point x="583" y="0" type="line"/>
      <point x="57" y="0" type="line"/>
      <point x="57" y="160" type="line"/>
      <point x="240" y="160" type="line"/>
      <point x="240" y="516" type="line"/>
      <point x="66" y="450" type="line"/>
      <point x="66" y="620" type="line"/>
    </contour>
  </outline>
</glyph>
<glyph name="two" format="2">
  <advance width="595"/>
  <unicode hex="0032"/>
  <outline>
    <contour>
      <point x="38" y="622" type="line"/>
      <point x="99" y="671"/>
      <point x="209" y="716"/>
      <point x="296" y="716" type="qcurve" smooth="yes"/>
      <point x="397" y="716"/>
      <point x="545" y="599"/>
      <point x="545" y="500" type="qcurve" smooth="yes"/>
      <point x="545" y="440"/>
      <point x="482" y="334"/>
      <point x="392" y="250" type="qcurve" smooth="yes"/>
      <point x="296" y="160" type="line"/>
      <point x="554" y="160" type="line"/>
      <point x="553" y="0" type="line"/>
      <point x="44" y="0" type="line"/>
      <point x="44" y="130" type="line"/>
      <point x="283" y="360" type="line" smooth="yes"/>
      <point x="325" y="402"/>
      <point x="361" y="459"/>
      <point x="361" y="489" type="qcurve" smooth="yes"/>
      <point x="361" y="521"/>
      <point x="316" y="567"/>
      <point x="271" y="567" type="qcurve" smooth="yes"/>
      <point x="184" y="567"/>
      <point x="113" y="502" type="qcurve"/>
    </contour>
  </outline>
</glyph>
<glyph name="three" format="2">
  <advance width="595"/>
  <unicode hex="0033"/>
  <outline>
    <contour>
      <point x="69" y="708" type="line"/>
      <point x="551" y="708" type="line"/>
      <point x="551" y="596" type="line"/>
      <point x="393" y="425" type="line"/>
      <point x="464" y="425"/>
      <point x="576" y="330"/>
      <point x="576" y="233" type="qcurve" smooth="yes"/>
      <point x="576" y="109"/>
      <point x="414" y="-8"/>
      <point x="284" y="-8" type="qcurve" smooth="yes"/>
      <point x="203" y="-8"/>
      <point x="79" y="33"/>
      <point x="18" y="78" type="qcurve"/>
      <point x="93" y="204" type="line"/>
      <point x="177" y="144"/>
      <point x="286" y="144" type="qcurve" smooth="yes"/>
      <point x="384" y="144"/>
      <point x="384" y="230" type="qcurve" smooth="yes"/>
      <point x="384" y="266"/>
      <point x="330" y="306"/>
      <point x="288" y="306" type="qcurve" smooth="yes"/>
      <point x="231" y="306" type="line"/>
      <point x="189" y="419" type="line"/>
      <point x="320" y="558" type="line"/>
      <point x="69" y="558" type="line"/>
    </contour>
  </outline>
</glyph>
<glyph name="four" format="2">
  <advance width="595"/>
  <unicode hex="0034"/>
  <outline>
    <contour>
      <point x="256" y="708" type="line"/>
      <point x="453" y="708" type="line"/>
      <point x="219" y="283" type="line"/>
      <point x="377" y="283" type="line"/>
      <point x="377" y="484" type="line"/>
      <point x="553" y="484" type="line"/>
      <point x="553" y="0" type="line"/>
      <point x="377" y="0" type="line"/>
      <point x="377" y="123" type="line"/>
      <point x="32" y="123" type="line"/>
      <point x="32" y="283" type="line"/>
    </contour>
  </outline>
</glyph>
<glyph name="five" format="2">
  <advance width="595"/>
  <unicode hex="0035"/>
  <outline>
    <contour>
      <point x="41" y="708" type="line"/>
      <point x="524" y="708" type="line"/>
      <point x="524" y="548" type="line"/>
      <point x="216" y="548" type="line"/>
      <point x="213" y="398" type="line"/>
      <point x="233" y="424"/>
      <point x="310" y="462"/>
      <point x="357" y="462" type="qcurve" smooth="yes"/>
      <point x="457" y="462"/>
      <point x="572" y="352"/>
      <point x="572" y="240" type="qcurve" smooth="yes"/>
      <point x="572" y="122"/>
      <point x="430" y="-8"/>
      <point x="280" y="-8" type="qcurve" smooth="yes"/>
      <point x="209" y="-8"/>
      <point x="50" y="38"/>
      <point x="10" y="61" type="qcurve"/>
      <point x="60" y="202" type="line"/>
      <point x="170" y="147"/>
      <point x="262" y="147" type="qcurve" smooth="yes"/>
      <point x="380" y="147"/>
      <point x="380" y="238" type="qcurve" smooth="yes"/>
      <point x="380" y="324"/>
      <point x="292" y="324" type="qcurve" smooth="yes"/>
      <point x="242" y="324"/>
      <point x="210" y="276" type="qcurve"/>
      <point x="39" y="276" type="line"/>
    </contour>
  </outline>
</glyph>
<glyph name="six" format="2">
  <advance width="595"/>
  <unicode hex="0036"/>
  <outline>
    <contour>
      <point x="318" y="716" type="qcurve" smooth="yes"/>
      <point x="464" y="716"/>
      <point x="560" y="638" type="qcurve"/>
      <point x="483" y="512" type="line"/>
      <point x="402" y="562"/>
      <point x="331" y="562" type="qcurve" smooth="yes"/>
      <point x="269" y="562"/>
      <point x="213" y="479"/>
      <point x="213" y="385" type="qcurve"/>
      <point x="222" y="419"/>
      <point x="311" y="469"/>
      <point x="361" y="469" type="qcurve" smooth="yes"/>
      <point x="462" y="469"/>
      <point x="571" y="346"/>
      <point x="571" y="233" type="qcurve" smooth="yes"/>
      <point x="571" y="117"/>
      <point x="429" y="-8"/>
      <point x="298" y="-8" type="qcurve" smooth="yes"/>
      <point x="165" y="-8"/>
      <point x="24" y="164"/>
      <point x="24" y="328" type="qcurve" smooth="yes"/>
      <point x="24" y="514"/>
      <point x="177" y="716"/>
    </contour>
    <contour>
      <point x="337" y="332"/>
      <point x="259" y="332"/>
      <point x="216" y="285"/>
      <point x="216" y="243" type="qcurve" smooth="yes"/>
      <point x="216" y="200"/>
      <point x="261" y="150"/>
      <point x="299" y="150" type="qcurve" smooth="yes"/>
      <point x="336" y="150"/>
      <point x="379" y="201"/>
      <point x="379" y="244" type="qcurve" smooth="yes"/>
      <point x="379" y="286"/>
    </contour>
  </outline>
</glyph>
<glyph name="seven" format="2">
  <advance width="595"/>
  <unicode hex="0037"/>
  <outline>
    <contour>
      <point x="32" y="708" type="line"/>
      <point x="555" y="708" type="line"/>
      <point x="555" y="548" type="line"/>
      <point x="318" y="0" type="line"/>
      <point x="113" y="0" type="line"/>
      <point x="365" y="548" type="line"/>
      <point x="32" y="548" type="line"/>
    </contour>
  </outline>
</glyph>
<glyph name="eight" format="2">
  <advance width="595"/>
  <unicode hex="0038"/>
  <outline>
    <contour>
      <point x="175" y="716"/>
      <point x="417" y="716"/>
      <point x="553" y="615"/>
      <point x="553" y="524" type="qcurve" smooth="yes"/>
      <point x="553" y="420"/>
      <point x="457" y="371" type="qcurve"/>
      <point x="571" y="323"/>
      <point x="571" y="198" type="qcurve" smooth="yes"/>
      <point x="571" y="103"/>
      <point x="424" y="-7"/>
      <point x="296" y="-7" type="qcurve" smooth="yes"/>
      <point x="169" y="-7"/>
      <point x="24" y="102"/>
      <point x="24" y="198" type="qcurve" smooth="yes"/>
      <point x="24" y="325"/>
      <point x="136" y="371" type="qcurve"/>
      <point x="42" y="420"/>
      <point x="42" y="524" type="qcurve" smooth="yes"/>
      <point x="42" y="615"/>
    </contour>
    <contour>
      <point x="299" y="580" type="qcurve" smooth="yes"/>
      <point x="261" y="580"/>
      <point x="218" y="541"/>
      <point x="218" y="506" type="qcurve" smooth="yes"/>
      <point x="218" y="434"/>
      <point x="297" y="434" type="qcurve" smooth="yes"/>
      <point x="336" y="434"/>
      <point x="379" y="472"/>
      <point x="379" y="540"/>
      <point x="336" y="580"/>
    </contour>
    <contour>
      <point x="297" y="297" type="qcurve" smooth="yes"/>
      <point x="257" y="297"/>
      <point x="212" y="256"/>
      <point x="212" y="219" type="qcurve" smooth="yes"/>
      <point x="212" y="133"/>
      <point x="299" y="133" type="qcurve" smooth="yes"/>
      <point x="336" y="133"/>
      <point x="383" y="177"/>
      <point x="383" y="211" type="qcurve" smooth="yes"/>
      <point x="383" y="252"/>
      <point x="338" y="297"/>
    </contour>
  </outline>
</glyph>
<glyph name="nine" format="2">
  <advance width="595"/>
  <unicode hex="0039"/>
  <outline>
    <contour>
      <point x="297" y="716" type="qcurve" smooth="yes"/>
      <point x="426" y="716"/>
      <point x="571" y="550"/>
      <point x="571" y="381" type="qcurve" smooth="yes"/>
      <point x="571" y="182"/>
      <point x="412" y="-8"/>
      <point x="269" y="-8" type="qcurve" smooth="yes"/>
      <point x="145" y="-8"/>
      <point x="28" y="62" type="qcurve"/>
      <point x="91" y="197" type="line"/>
      <point x="153" y="145"/>
      <point x="249" y="145" type="qcurve" smooth="yes"/>
      <point x="321" y="145"/>
      <point x="382" y="234"/>
      <point x="382" y="336" type="qcurve"/>
      <point x="373" y="302"/>
      <point x="294" y="252"/>
      <point x="244" y="252" type="qcurve" smooth="yes"/>
      <point x="24" y="252"/>
      <point x="24" y="480" type="qcurve" smooth="yes"/>
      <point x="24" y="590"/>
      <point x="177" y="716"/>
    </contour>
    <contour>
      <point x="296" y="556" type="qcurve" smooth="yes"/>
      <point x="259" y="556"/>
      <point x="216" y="514"/>
      <point x="216" y="472" type="qcurve" smooth="yes"/>
      <point x="216" y="432"/>
      <point x="261" y="392"/>
      <point x="333" y="392"/>
      <point x="379" y="433"/>
      <point x="379" y="473" type="qcurve" smooth="yes"/>
      <point x="379" y="514"/>
      <point x="336" y="556"/>
    </contour>
  </outline>
</glyph>
<glyph name="colon" format="2">
  <advance width="215"/>
  <unicode hex="003A"/>
  <outline>
    <contour>
      <point x="78" y="528"/>
      <point x="138" y="528"/>
      <point x="180" y="485"/>
      <point x="180" y="425"/>
      <point x="138" y="382"/>
      <point x="78" y="382"/>
      <point x="34" y="425"/>
      <point x="34" y="485"/>
    </contour>
    <contour>
      <point x="78" y="139"/>
      <point x="138" y="139"/>
      <point x="180" y="96"/>
      <point x="180" y="36"/>
      <point x="138" y="-7"/>
      <point x="78" y="-7"/>
      <point x="34" y="36"/>
      <point x="34" y="96"/>
    </contour>
  </outline>
</glyph>
<glyph name="semicolon" format="2">
  <advance width="215"/>
  <unicode hex="003B"/>
  <outline>
    <contour>
      <point x="78" y="528"/>
      <point x="138" y="528"/>
      <point x="180" y="485"/>
      <point x="180" y="425"/>
      <point x="138" y="382"/>
      <point x="78" y="382"/>
      <point x="34" y="425"/>
      <point x="34" y="485"/>
    </contour>
    <contour>
      <point x="46" y="79" type="line"/>
      <point x="174" y="79" type="line"/>
      <point x="128" y="-143" type="line"/>
      <point x="46" y="-143" type="line"/>
    </contour>
  </outline>
</glyph>
<glyph name="equal" format="2">
  <advance width="579"/>
  <unicode hex="003D"/>
  <outline>
    <contour>
      <point x="77" y="438" type="line"/>
      <point x="497" y="438" type="line"/>
      <point x="497" y="330" type="line"/>
      <point x="77" y="330" type="line"/>
    </contour>
    <contour>
      <point x="77" y="228" type="line"/>
      <point x="497" y="228" type="line"/>
      <point x="497" y="120" type="line"/>
      <point x="77" y="120" type="line"/>
    </contour>
  </outline>
</glyph>
<glyph name="question" format="2">
  <advance width="566"/>
  <unicode hex="003F"/>
  <outline>
    <contour>
      <point x="278" y="732" type="qcurve" smooth="yes"/>
      <point x="381" y="732"/>
      <point x="530" y="632"/>
      <point x="530" y="544" type="qcurve" smooth="yes"/>
      <point x="530" y="482"/>
      <point x="477" y="399"/>
      <point x="424" y="368" type="qcurve" smooth="yes"/>
      <point x="379" y="342"/>
      <point x="347" y="308"/>
      <point x="347" y="280" type="qcurve" smooth="yes"/>
      <point x="347" y="240" type="line"/>
      <point x="173" y="219" type="line"/>
      <point x="163" y="244"/>
      <point x="163" y="280" type="qcurve" smooth="yes"/>
      <point x="163" y="333"/>
      <point x="208" y="398"/>
      <point x="258" y="428" type="qcurve"/>
      <point x="264" y="431"/>
      <point x="287" y="446"/>
      <point x="296" y="451"/>
      <point x="313" y="462"/>
      <point x="319" y="468"/>
      <point x="331" y="478"/>
      <point x="335" y="486"/>
      <point x="340" y="497"/>
      <point x="342" y="509"/>
      <point x="342" y="516" type="qcurve" smooth="yes"/>
      <point x="342" y="541"/>
      <point x="302" y="577"/>
      <point x="256" y="577" type="qcurve" smooth="yes"/>
      <point x="176" y="577"/>
      <point x="112" y="528" type="qcurve"/>
      <point x="36" y="659" type="line"/>
      <point x="94" y="698"/>
      <point x="200" y="732"/>
    </contour>
    <contour>
      <point x="226" y="197"/>
      <point x="310" y="197"/>
      <point x="370" y="137"/>
      <point x="370" y="53"/>
      <point x="310" y="-7"/>
      <point x="226" y="-7"/>
      <point x="166" y="53"/>
      <point x="166" y="137"/>
    </contour>
  </outline>
</glyph>
<glyph name="at" format="2">
  <advance width="1022"/>
  <unicode hex="0040"/>
  <outline>
    <contour>
      <point x="512" y="824" type="qcurve" smooth="yes"/>
      <point x="719" y="824"/>
      <point x="982" y="580"/>
      <point x="982" y="388" type="qcurve" smooth="yes"/>
      <point x="982" y="326"/>
      <point x="938" y="187"/>
      <point x="907" y="149" type="qcurve"/>
      <point x="770" y="116" type="line"/>
      <point x="613" y="207" type="line"/>
      <point x="551" y="116"/>
      <point x="444" y="116" type="qcurve" smooth="yes"/>
      <point x="360" y="116"/>
      <point x="246" y="237"/>
      <point x="246" y="325" type="qcurve" smooth="yes"/>
      <point x="246" y="438"/>
      <point x="369" y="577"/>
      <point x="469" y="577" type="qcurve" smooth="yes"/>
      <point x="541" y="577"/>
      <point x="584" y="509" type="qcurve"/>
      <point x="623" y="569" type="line"/>
      <point x="730" y="569" type="line"/>
      <point x="691" y="303" type="line"/>
      <point x="797" y="250" type="line"/>
      <point x="811" y="269"/>
      <point x="830" y="341"/>
      <point x="830" y="376" type="qcurve" smooth="yes"/>
      <point x="830" y="525"/>
      <point x="661" y="687"/>
      <point x="504" y="687" type="qcurve" smooth="yes"/>
      <point x="366" y="687"/>
      <point x="175" y="492"/>
      <point x="175" y="352" type="qcurve" smooth="yes"/>
      <point x="175" y="192"/>
      <point x="347" y="13"/>
      <point x="501" y="13" type="qcurve" smooth="yes"/>
      <point x="569" y="13"/>
      <point x="708" y="38"/>
      <point x="737" y="48" type="qcurve"/>
      <point x="737" y="-92" type="line"/>
      <point x="634" y="-120"/>
      <point x="497" y="-120" type="qcurve" smooth="yes"/>
      <point x="270" y="-120"/>
      <point x="24" y="123"/>
      <point x="24" y="346" type="qcurve" smooth="yes"/>
      <point x="24" y="558"/>
      <point x="296" y="824"/>
    </contour>
    <contour>
      <point x="491" y="447" type="qcurve" smooth="yes"/>
      <point x="452" y="447"/>
      <point x="406" y="382"/>
      <point x="406" y="330" type="qcurve" smooth="yes"/>
      <point x="406" y="250"/>
      <point x="475" y="250" type="qcurve" smooth="yes"/>
      <point x="503" y="250"/>
      <point x="545" y="298"/>
      <point x="551" y="337" type="qcurve" smooth="yes"/>
      <point x="562" y="412" type="line"/>
      <point x="533" y="447"/>
    </contour>
  </outline>
</glyph>
<glyph name="A" format="2">
  <advance width="696"/>
  <unicode hex="0041"/>
  <outline>
    <contour>
      <point x="231" y="708" type="line"/>
      <point x="467" y="708" type="line"/>
      <point x="692" y="0" type="line"/>
      <point x="503" y="0" type="line"/>
      <point x="460" y="153" type="line"/>
      <point x="241" y="153" type="line"/>
      <point x="196" y="0" type="line"/>
      <point x="4" y="0" type="line"/>
    </contour>
    <contour>
      <point x="348" y="528" type="line"/>
      <point x="281" y="293" type="line"/>
      <point x="421" y="293" type="line"/>
      <point x="356" y="528" type="line"/>
    </contour>
  </outline>
</glyph>
<glyph name="B" format="2">
  <advance width="673"/>
  <unicode hex="0042"/>
  <outline>
    <contour>
      <point x="64" y="708" type="line"/>
      <point x="383" y="708" type="line" smooth="yes"/>
      <point x="479" y="708"/>
      <point x="610" y="612"/>
      <point x="610" y="531" type="qcurve" smooth="yes"/>
      <point x="610" y="403"/>
      <point x="508" y="373" type="qcurve"/>
      <point x="574" y="359"/>
      <point x="641" y="278"/>
      <point x="641" y="196" type="qcurve" smooth="yes"/>
      <point x="641" y="146"/>
      <point x="600" y="68"/>
      <point x="531" y="23"/>
      <point x="448" y="0"/>
      <point x="403" y="0" type="qcurve" smooth="yes"/>
      <point x="64" y="0" type="line"/>
    </contour>
    <contour>
      <point x="256" y="548" type="line"/>
      <point x="256" y="437" type="line"/>
      <point x="350" y="437" type="line" smooth="yes"/>
      <point x="418" y="437"/>
      <point x="418" y="494" type="qcurve" smooth="yes"/>
      <point x="418" y="548"/>
      <point x="351" y="548" type="qcurve" smooth="yes"/>
    </contour>
    <contour>
      <point x="256" y="297" type="line"/>
      <point x="256" y="160" type="line"/>
      <point x="362" y="160" type="line" smooth="yes"/>
      <point x="449" y="160"/>
      <point x="449" y="228" type="qcurve" smooth="yes"/>
      <point x="449" y="265"/>
      <point x="405" y="297"/>
      <point x="359" y="297" type="qcurve" smooth="yes"/>
    </contour>
  </outline>
</glyph>
<glyph name="C" format="2">
  <advance width="665"/>
  <unicode hex="0043"/>
  <outline>
    <contour>
      <point x="374" y="716" type="qcurve" smooth="yes"/>
      <point x="456" y="716"/>
      <point x="572" y="672"/>
      <point x="641" y="618" type="qcurve"/>
      <point x="560" y="503" type="line"/>
      <point x="487" y="564"/>
      <point x="392" y="564" type="qcurve" smooth="yes"/>
      <point x="313" y="564"/>
      <point x="224" y="452"/>
      <point x="224" y="353" type="qcurve" smooth="yes"/>
      <point x="224" y="145"/>
      <point x="395" y="145" type="qcurve" smooth="yes"/>
      <point x="508" y="145"/>
      <point x="579" y="210" type="qcurve"/>
      <point x="655" y="87" type="line"/>
      <point x="541" y="-7"/>
      <point x="375" y="-7" type="qcurve" smooth="yes"/>
      <point x="219" y="-7"/>
      <point x="32" y="188"/>
      <point x="32" y="518"/>
      <point x="224" y="716"/>
    </contour>
  </outline>
</glyph>
<glyph name="D" format="2">
  <advance width="695"/>
  <unicode hex="0044"/>
  <outline>
    <contour>
      <point x="256" y="548" type="line"/>
      <point x="256" y="160" type="line"/>
      <point x="304" y="160" type="line" smooth="yes"/>
      <point x="392" y="160"/>
      <point x="471" y="258"/>
      <point x="471" y="361" type="qcurve" smooth="yes"/>
      <point x="471" y="458"/>
      <point x="391" y="548"/>
      <point x="306" y="548" type="qcurve" smooth="yes"/>
    </contour>
    <contour>
      <point x="64" y="708" type="line"/>
      <point x="328" y="708" type="line" smooth="yes"/>
      <point x="486" y="708"/>
      <point x="663" y="518"/>
      <point x="663" y="361" type="qcurve" smooth="yes"/>
      <point x="663" y="192"/>
      <point x="485" y="0"/>
      <point x="324" y="0" type="qcurve" smooth="yes"/>
      <point x="64" y="0" type="line"/>
    </contour>
  </outline>
</glyph>
<glyph name="E" format="2">
  <advance width="624"/>
  <unicode hex="0045"/>
  <outline>
    <contour>
      <point x="64" y="708" type="line"/>
      <point x="570" y="708" type="line"/>
      <point x="570" y="548" type="line"/>
      <point x="256" y="548" type="line"/>
      <point x="256" y="438" type="line"/>
      <point x="512" y="438" type="line"/>
      <point x="512" y="288" type="line"/>
      <point x="256" y="288" type="line"/>
      <point x="256" y="160" type="line"/>
      <point x="584" y="160" type="line"/>
      <point x="584" y="0" type="line"/>
      <point x="64" y="0" type="line"/>
    </contour>
  </outline>
</glyph>
<glyph name="F" format="2">
  <advance width="609"/>
  <unicode hex="0046"/>
  <outline>
    <contour>
      <point x="64" y="708" type="line"/>
      <point x="561" y="708" type="line"/>
      <point x="561" y="543" type="line"/>
      <point x="256" y="543" type="line"/>
      <point x="256" y="425" type="line"/>
      <point x="483" y="425" type="line"/>
      <point x="483" y="275" type="line"/>
      <point x="256" y="275" type="line"/>
      <point x="256" y="0" type="line"/>
      <point x="64" y="0" type="line"/>
    </contour>
  </outline>
</glyph>
<glyph name="G" format="2">
  <advance width="700"/>
  <unicode hex="0047"/>
  <outline>
    <contour>
      <point x="383" y="716" type="qcurve" smooth="yes"/>
      <point x="457" y="716"/>
      <point x="581" y="673"/>
      <point x="644" y="621" type="qcurve"/>
      <point x="558" y="505" type="line"/>
      <point x="517" y="535"/>
      <point x="442" y="561"/>
      <point x="386" y="561" type="qcurve" smooth="yes"/>
      <point x="224" y="561"/>
      <point x="224" y="349" type="qcurve" smooth="yes"/>
      <point x="224" y="241"/>
      <point x="306" y="143"/>
      <point x="392" y="143" type="qcurve" smooth="yes"/>
      <point x="439" y="143"/>
      <point x="474" y="148" type="qcurve"/>
      <point x="474" y="282" type="line"/>
      <point x="362" y="282" type="line"/>
      <point x="362" y="421" type="line"/>
      <point x="652" y="421" type="line"/>
      <point x="652" y="33" type="line"/>
      <point x="615" y="20"/>
      <point x="471" y="-8"/>
      <point x="395" y="-8" type="qcurve" smooth="yes"/>
      <point x="32" y="-8"/>
      <point x="32" y="352" type="qcurve" smooth="yes"/>
      <point x="32" y="534"/>
      <point x="217" y="716"/>
    </contour>
  </outline>
</glyph>
<glyph name="H" format="2">
  <advance width="716"/>
  <unicode hex="0048"/>
  <outline>
    <contour>
      <point x="64" y="708" type="line"/>
      <point x="256" y="708" type="line"/>
      <point x="256" y="451" type="line"/>
      <point x="460" y="451" type="line"/>
      <point x="460" y="708" type="line"/>
      <point x="652" y="708" type="line"/>
      <point x="652" y="0" type="line"/>
      <point x="460" y="0" type="line"/>
      <point x="460" y="281" type="line"/>
      <point x="256" y="281" type="line"/>
      <point x="256" y="0" type="line"/>
      <point x="64" y="0" type="line"/>
    </contour>
  </outline>
</glyph>
<glyph name="J" format="2">
  <advance width="466"/>
  <unicode hex="004A"/>
  <outline>
    <contour>
      <point x="210" y="708" type="line"/>
      <point x="402" y="708" type="line"/>
      <point x="402" y="276" type="line" smooth="yes"/>
      <point x="402" y="135"/>
      <point x="262" y="-8"/>
      <point x="146" y="-8" type="qcurve" smooth="yes"/>
      <point x="80" y="-8"/>
      <point x="22" y="5" type="qcurve"/>
      <point x="34" y="152" type="line"/>
      <point x="118" y="151" type="line" smooth="yes"/>
      <point x="210" y="151"/>
      <point x="210" y="273" type="qcurve" smooth="yes"/>
    </contour>
  </outline>
</glyph>
<glyph name="K" format="2">
  <advance width="701"/>
  <unicode hex="004B"/>
  <outline>
    <contour>
      <point x="64" y="708" type="line"/>
      <point x="256" y="708" type="line"/>
      <point x="256" y="459" type="line"/>
      <point x="280" y="459" type="line"/>
      <point x="456" y="708" type="line"/>
      <point x="687" y="708" type="line"/>
      <point x="405" y="360" type="line"/>
      <point x="689" y="0" type="line"/>
      <point x="456" y="0" type="line"/>
      <point x="280" y="261" type="line"/>
      <point x="256" y="261" type="line"/>
      <point x="256" y="0" type="line"/>
      <point x="64" y="0" type="line"/>
    </contour>
  </outline>
</glyph>
<glyph name="L" format="2">
  <advance width="600"/>
  <unicode hex="004C"/>
  <outline>
    <contour>
      <point x="64" y="708" type="line"/>
      <point x="256" y="708" type="line"/>
      <point x="256" y="160" type="line"/>
      <point x="552" y="160" type="line"/>
      <point x="552" y="0" type="line"/>
      <point x="64" y="0" type="line"/>
    </contour>
  </outline>
</glyph>
<glyph name="M" format="2">
  <advance width="840"/>
  <unicode hex="004D"/>
  <outline>
    <contour>
      <point x="64" y="708" type="line"/>
      <point x="256" y="708" type="line"/>
      <point x="417" y="369" type="line"/>
      <point x="584" y="708" type="line"/>
      <point x="776" y="708" type="line"/>
      <point x="776" y="0" type="line"/>
      <point x="584" y="0" type="line"/>
      <point x="584" y="359" type="line"/>
      <point x="488" y="148" type="line"/>
      <point x="354" y="148" type="line"/>
      <point x="256" y="359" type="line"/>
      <point x="256" y="0" type="line"/>
      <point x="64" y="0" type="line"/>
    </contour>
  </outline>
</glyph>
<glyph name="N" format="2">
  <advance width="757"/>
  <unicode hex="004E"/>
  <outline>
    <contour>
      <point x="64" y="708" type="line"/>
      <point x="256" y="708" type="line"/>
      <point x="501" y="332" type="line"/>
      <point x="501" y="708" type="line"/>
      <point x="693" y="708" type="line"/>
      <point x="693" y="0" type="line"/>
      <point x="501" y="0" type="line"/>
      <point x="256" y="396" type="line"/>
      <point x="256" y="0" type="line"/>
      <point x="64" y="0" type="line"/>
    </contour>
  </outline>
</glyph>
<glyph name="O" format="2">
  <advance width="720"/>
  <unicode hex="004F"/>
  <outline>
    <contour>
      <point x="361" y="716" type="qcurve" smooth="yes"/>
      <point x="514" y="716"/>
      <point x="688" y="525"/>
      <point x="688" y="357" type="qcurve" smooth="yes"/>
      <point x="688" y="188"/>
      <point x="512" y="-8"/>
      <point x="208" y="-8"/>
      <point x="32" y="188"/>
      <point x="32" y="357" type="qcurve" smooth="yes"/>
      <point x="32" y="524"/>
      <point x="207" y="716"/>
    </contour>
    <contour>
      <point x="426" y="556"/>
      <point x="294" y="556"/>
      <point x="224" y="453"/>
      <point x="224" y="357" type="qcurve" smooth="yes"/>
      <point x="224" y="259"/>
      <point x="296" y="152"/>
      <point x="426" y="152"/>
      <point x="496" y="259"/>
      <point x="496" y="356" type="qcurve" smooth="yes"/>
      <point x="496" y="452"/>
    </contour>
  </outline>
</glyph>
<glyph name="P" format="2">
  <advance width="680"/>
  <unicode hex="0050"/>
  <outline>
    <contour>
      <point x="256" y="548" type="line"/>
      <point x="256" y="376" type="line"/>
      <point x="368" y="376" type="line" smooth="yes"/>
      <point x="456" y="376"/>
      <point x="456" y="464" type="qcurve" smooth="yes"/>
      <point x="456" y="504"/>
      <point x="410" y="548"/>
      <point x="368" y="548" type="qcurve" smooth="yes"/>
    </contour>
    <contour>
      <point x="64" y="708" type="line"/>
      <point x="379" y="708" type="line" smooth="yes"/>
      <point x="503" y="708"/>
      <point x="648" y="577"/>
      <point x="648" y="464" type="qcurve" smooth="yes"/>
      <point x="648" y="345"/>
      <point x="498" y="216"/>
      <point x="360" y="216" type="qcurve" smooth="yes"/>
      <point x="256" y="216" type="line"/>
      <point x="256" y="0" type="line"/>
      <point x="64" y="0" type="line"/>
    </contour>
  </outline>
</glyph>
<glyph name="Q" format="2">
  <advance width="720"/>
  <unicode hex="0051"/>
  <outline>
    <contour>
      <point x="360" y="556" type="qcurve" smooth="yes"/>
      <point x="297" y="556"/>
      <point x="224" y="449"/>
      <point x="224" y="357" type="qcurve" smooth="yes"/>
      <point x="224" y="258"/>
      <point x="294" y="153"/>
      <point x="360" y="153" type="qcurve" smooth="yes"/>
      <point x="425" y="153"/>
      <point x="496" y="259"/>
      <point x="496" y="357" type="qcurve" smooth="yes"/>
      <point x="496" y="556"/>
    </contour>
    <contour>
      <point x="209" y="716"/>
      <point x="511" y="716"/>
      <point x="688" y="523"/>
      <point x="688" y="357" type="qcurve" smooth="yes"/>
      <point x="688" y="214"/>
      <point x="551" y="23"/>
      <point x="433" y="0" type="qcurve"/>
      <point x="440" y="-15"/>
      <point x="476" y="-34"/>
      <point x="498" y="-34" type="qcurve" smooth="yes"/>
      <point x="610" y="-34" type="line"/>
      <point x="624" y="-178" type="line"/>
      <point x="552" y="-184"/>
      <point x="484" y="-184" type="qcurve" smooth="yes"/>
      <point x="384" y="-184"/>
      <point x="268" y="-84"/>
      <point x="264" y="5" type="qcurve"/>
      <point x="155" y="34"/>
      <point x="32" y="220"/>
      <point x="32" y="357" type="qcurve" smooth="yes"/>
      <point x="32" y="522"/>
    </contour>
  </outline>
</glyph>
<glyph name="R" format="2">
  <advance width="688"/>
  <unicode hex="0052"/>
  <outline>
    <contour>
      <point x="256" y="550" type="line"/>
      <point x="256" y="373" type="line"/>
      <point x="367" y="373" type="line" smooth="yes"/>
      <point x="405" y="373"/>
      <point x="448" y="421"/>
      <point x="448" y="466" type="qcurve" smooth="yes"/>
      <point x="448" y="550"/>
      <point x="363" y="550" type="qcurve" smooth="yes"/>
    </contour>
    <contour>
      <point x="64" y="708" type="line"/>
      <point x="368" y="708" type="line" smooth="yes"/>
      <point x="500" y="708"/>
      <point x="640" y="579"/>
      <point x="640" y="470" type="qcurve" smooth="yes"/>
      <point x="640" y="393"/>
      <point x="569" y="277"/>
      <point x="502" y="246" type="qcurve"/>
      <point x="672" y="0" type="line"/>
      <point x="466" y="0" type="line"/>
      <point x="325" y="215" type="line"/>
      <point x="256" y="215" type="line"/>
      <point x="256" y="0" type="line"/>
      <point x="64" y="0" type="line"/>
    </contour>
  </outline>
</glyph>
<glyph name="S" format="2">
  <advance width="626"/>
  <unicode hex="0053"/>
  <outline>
    <contour>
      <point x="325" y="716" type="qcurve" smooth="yes"/>
      <point x="413" y="716"/>
      <point x="544" y="671"/>
      <point x="605" y="620" type="qcurve"/>
      <point x="525" y="501" type="line"/>
      <point x="443" y="562"/>
      <point x="327" y="562" type="qcurve" smooth="yes"/>
      <point x="219" y="562"/>
      <point x="219" y="496" type="qcurve" smooth="yes"/>
      <point x="219" y="467"/>
      <point x="257" y="444"/>
      <point x="317" y="433" type="qcurve" smooth="yes"/>
      <point x="378" y="422" type="line" smooth="yes"/>
      <point x="499" y="402"/>
      <point x="610" y="298"/>
      <point x="610" y="208" type="qcurve" smooth="yes"/>
      <point x="610" y="-8"/>
      <point x="295" y="-8" type="qcurve" smooth="yes"/>
      <point x="219" y="-8"/>
      <point x="54" y="41"/>
      <point x="16" y="75" type="qcurve"/>
      <point x="95" y="203" type="line"/>
      <point x="179" y="139"/>
      <point x="302" y="139" type="qcurve" smooth="yes"/>
      <point x="422" y="139"/>
      <point x="422" y="202" type="qcurve" smooth="yes"/>
      <point x="422" y="234"/>
      <point x="377" y="262"/>
      <point x="310" y="273" type="qcurve" smooth="yes"/>
      <point x="255" y="283" type="line" smooth="yes"/>
      <point x="143" y="301"/>
      <point x="30" y="409"/>
      <point x="30" y="505" type="qcurve" smooth="yes"/>
      <point x="30" y="605"/>
      <point x="181" y="716"/>
    </contour>
  </outline>
</glyph>
<glyph name="T" format="2">
  <advance width="671"/>
  <unicode hex="0054"/>
  <outline>
    <contour>
      <point x="40" y="708" type="line"/>
      <point x="631" y="708" type="line"/>
      <point x="631" y="548" type="line"/>
      <point x="433" y="548" type="line"/>
      <point x="433" y="0" type="line"/>
      <point x="241" y="0" type="line"/>
      <point x="241" y="548" type="line"/>
      <point x="40" y="548" type="line"/>
    </contour>
  </outline>
</glyph>
<glyph name="U" format="2">
  <advance width="716"/>
  <unicode hex="0055"/>
  <outline>
    <contour>
      <point x="56" y="708" type="line"/>
      <point x="248" y="708" type="line"/>
      <point x="248" y="299" type="line" smooth="yes"/>
      <point x="248" y="153"/>
      <point x="468" y="153"/>
      <point x="468" y="299" type="qcurve" smooth="yes"/>
      <point x="468" y="708" type="line"/>
      <point x="660" y="708" type="line"/>
      <point x="660" y="281" type="line" smooth="yes"/>
      <point x="660" y="137"/>
      <point x="493" y="-7"/>
      <point x="357" y="-7" type="qcurve" smooth="yes"/>
      <point x="215" y="-7"/>
      <point x="56" y="136"/>
      <point x="56" y="283" type="qcurve" smooth="yes"/>
    </contour>
  </outline>
</glyph>
<glyph name="V" format="2">
  <advance width="697"/>
  <unicode hex="0056"/>
  <outline>
    <contour>
      <point x="7" y="708" type="line"/>
      <point x="200" y="708" type="line"/>
      <point x="348" y="245" type="line"/>
      <point x="497" y="708" type="line"/>
      <point x="690" y="708" type="line"/>
      <point x="451" y="0" type="line"/>
      <point x="245" y="0" type="line"/>
    </contour>
  </outline>
</glyph>
<glyph name="W" format="2">
  <advance width="890"/>
  <unicode hex="0057"/>
  <outline>
    <contour>
      <point x="4" y="708" type="line"/>
      <point x="180" y="708" type="line"/>
      <point x="267" y="250" type="line"/>
      <point x="360" y="708" type="line"/>
      <point x="538" y="708" type="line"/>
      <point x="624" y="257" type="line"/>
      <point x="710" y="708" type="line"/>
      <point x="886" y="708" type="line"/>
      <point x="723" y="0" type="line"/>
      <point x="523" y="0" type="line"/>
      <point x="448" y="343" type="line"/>
      <point x="371" y="0" type="line"/>
      <point x="167" y="0" type="line"/>
    </contour>
  </outline>
</glyph>
<glyph name="X" format="2">
  <advance width="710"/>
  <unicode hex="0058"/>
  <outline>
    <contour>
      <point x="4" y="708" type="line"/>
      <point x="206" y="708" type="line"/>
      <point x="354" y="465" type="line"/>
      <point x="503" y="708" type="line"/>
      <point x="706" y="708" type="line"/>
      <point x="471" y="354" type="line"/>
      <point x="706" y="0" type="line"/>
      <point x="503" y="0" type="line"/>
      <point x="354" y="244" type="line"/>
      <point x="206" y="0" type="line"/>
      <point x="4" y="0" type="line"/>
      <point x="229" y="354" type="line"/>
    </contour>
  </outline>
</glyph>
<glyph name="Y" format="2">
  <advance width="647"/>
  <unicode hex="0059"/>
  <outline>
    <contour>
      <point x="4" y="708" type="line"/>
      <point x="188" y="708" type="line"/>
      <point x="325" y="406" type="line"/>
      <point x="458" y="708" type="line"/>
      <point x="643" y="708" type="line"/>
      <point x="420" y="270" type="line"/>
      <point x="420" y="0" type="line"/>
      <point x="228" y="0" type="line"/>
      <point x="228" y="269" type="line"/>
    </contour>
  </outline>
</glyph>
<glyph name="Z" format="2">
  <advance width="662"/>
  <unicode hex="005A"/>
  <outline>
    <contour>
      <point x="48" y="708" type="line"/>
      <point x="614" y="708" type="line"/>
      <point x="614" y="580" type="line"/>
      <point x="286" y="160" type="line"/>
      <point x="614" y="160" type="line"/>
      <point x="614" y="0" type="line"/>
      <point x="48" y="0" type="line"/>
      <point x="48" y="128" type="line"/>
      <point x="379" y="548" type="line"/>
      <point x="48" y="548" type="line"/>
    </contour>
  </outline>
</glyph>
<glyph name="bracketleft" format="2">
  <advance width="382"/>
  <unicode hex="005B"/>
  <outline>
    <contour>
      <point x="61" y="819" type="line"/>
      <point x="351" y="819" type="line"/>
      <point x="351" y="675" type="line"/>
      <point x="221" y="675" type="line"/>
      <point x="221" y="80" type="line"/>
      <point x="351" y="80" type="line"/>
      <point x="351" y="-64" type="line"/>
      <point x="61" y="-64" type="line"/>
    </contour>
  </outline>
</glyph>
<glyph name="asciicircum" format="2">
  <advance width="489"/>
  <unicode hex="005E"/>
  <outline>
    <contour>
      <point x="77" y="716" type="line"/>
      <point x="208" y="852" type="line"/>
      <point x="273" y="852" type="line"/>
      <point x="404" y="716" type="line"/>
      <point x="364" y="667" type="line"/>
      <point x="241" y="786" type="line"/>
      <point x="118" y="667" type="line"/>
    </contour>
  </outline>
</glyph>
<glyph name="underscore" format="2">
  <advance width="561"/>
  <unicode hex="005F"/>
  <outline>
    <contour>
      <point x="95" y="0" type="line"/>
      <point x="496" y="0" type="line"/>
      <point x="496" y="-108" type="line"/>
      <point x="95" y="-108" type="line"/>
    </contour>
  </outline>
</glyph>
<glyph name="grave" format="2">
  <advance width="344"/>
  <unicode hex="0060"/>
  <outline>
    <contour>
      <point x="56" y="929" type="line"/>
      <point x="324" y="826" type="line"/>
      <point x="279" y="723" type="line"/>
      <point x="9" y="798" type="line"/>
    </contour>
  </outline>
</glyph>
<glyph name="a" format="2">
  <advance width="573"/>
  <unicode hex="0061"/>
  <outline>
    <contour>
      <point x="254" y="528" type="qcurve" smooth="yes"/>
      <point x="379" y="528"/>
      <point x="508" y="416"/>
      <point x="508" y="307" type="qcurve" smooth="yes"/>
      <point x="508" y="150" type="line" smooth="yes"/>
      <point x="508" y="125"/>
      <point x="529" y="102"/>
      <point x="552" y="102" type="qcurve" smooth="yes"/>
      <point x="565" y="102" type="line"/>
      <point x="565" y="0" type="line"/>
      <point x="503" y="-8"/>
      <point x="463" y="-8" type="qcurve" smooth="yes"/>
      <point x="363" y="-8"/>
      <point x="326" y="67" type="qcurve"/>
      <point x="280" y="-8"/>
      <point x="187" y="-8" type="qcurve" smooth="yes"/>
      <point x="110" y="-8"/>
      <point x="24" y="78"/>
      <point x="24" y="156" type="qcurve" smooth="yes"/>
      <point x="24" y="230"/>
      <point x="146" y="316"/>
      <point x="251" y="316" type="qcurve" smooth="yes"/>
      <point x="326" y="316" type="line"/>
      <point x="326" y="333" type="line" smooth="yes"/>
      <point x="326" y="406"/>
      <point x="234" y="406" type="qcurve" smooth="yes"/>
      <point x="200" y="406"/>
      <point x="126" y="385"/>
      <point x="108" y="371" type="qcurve"/>
      <point x="53" y="473" type="line"/>
      <point x="138" y="528"/>
    </contour>
    <contour>
      <point x="326" y="205" type="line"/>
      <point x="262" y="205" type="line" smooth="yes"/>
      <point x="208" y="205"/>
      <point x="208" y="162" type="qcurve" smooth="yes"/>
      <point x="208" y="141"/>
      <point x="235" y="117"/>
      <point x="258" y="117" type="qcurve" smooth="yes"/>
      <point x="305" y="117"/>
      <point x="326" y="155" type="qcurve"/>
    </contour>
  </outline>
</glyph>
<glyph name="b" format="2">
  <advance width="652"/>
  <unicode hex="0062"/>
  <outline>
    <contour>
      <point x="56" y="716" type="line"/>
      <point x="244" y="716" type="line"/>
      <point x="244" y="468" type="line"/>
      <point x="291" y="528"/>
      <point x="391" y="528" type="qcurve" smooth="yes"/>
      <point x="485" y="528"/>
      <point x="620" y="390"/>
      <point x="620" y="262" type="qcurve" smooth="yes"/>
      <point x="620" y="138"/>
      <point x="481" y="-8"/>
      <point x="382" y="-8" type="qcurve" smooth="yes"/>
      <point x="285" y="-8"/>
      <point x="235" y="62" type="qcurve"/>
      <point x="206" y="0" type="line"/>
      <point x="56" y="0" type="line"/>
    </contour>
    <contour>
      <point x="332" y="388" type="qcurve" smooth="yes"/>
      <point x="274" y="388"/>
      <point x="244" y="330" type="qcurve"/>
      <point x="244" y="182" type="line"/>
      <point x="277" y="128"/>
      <point x="336" y="128" type="qcurve" smooth="yes"/>
      <point x="375" y="128"/>
      <point x="428" y="192"/>
      <point x="428" y="256" type="qcurve" smooth="yes"/>
      <point x="428" y="388"/>
    </contour>
  </outline>
</glyph>
<glyph name="c" format="2">
  <advance width="560"/>
  <unicode hex="0063"/>
  <outline>
    <contour>
      <point x="322" y="528" type="qcurve" smooth="yes"/>
      <point x="400" y="528"/>
      <point x="500" y="495"/>
      <point x="548" y="460" type="qcurve"/>
      <point x="475" y="350" type="line"/>
      <point x="420" y="392"/>
      <point x="347" y="392" type="qcurve" smooth="yes"/>
      <point x="289" y="392"/>
      <point x="228" y="318"/>
      <point x="228" y="254" type="qcurve" smooth="yes"/>
      <point x="228" y="133"/>
      <point x="346" y="133" type="qcurve" smooth="yes"/>
      <point x="427" y="133"/>
      <point x="480" y="184" type="qcurve"/>
      <point x="560" y="76" type="line"/>
      <point x="469" y="-8"/>
      <point x="321" y="-8" type="qcurve" smooth="yes"/>
      <point x="190" y="-8"/>
      <point x="40" y="132"/>
      <point x="40" y="259" type="qcurve" smooth="yes"/>
      <point x="40" y="384"/>
      <point x="191" y="528"/>
    </contour>
  </outline>
</glyph>
<glyph name="d" format="2">
  <advance width="652"/>
  <unicode hex="0064"/>
  <outline>
    <contour>
      <point x="408" y="716" type="line"/>
      <point x="596" y="716" type="line"/>
      <point x="596" y="0" type="line"/>
      <point x="446" y="0" type="line"/>
      <point x="418" y="60" type="line"/>
      <point x="361" y="-8"/>
      <point x="270" y="-8" type="qcurve" smooth="yes"/>
      <point x="171" y="-8"/>
      <point x="32" y="138"/>
      <point x="32" y="262" type="qcurve" smooth="yes"/>
      <point x="32" y="390"/>
      <point x="167" y="528"/>
      <point x="261" y="528" type="qcurve" smooth="yes"/>
      <point x="361" y="528"/>
      <point x="408" y="468" type="qcurve"/>
    </contour>
    <contour>
      <point x="320" y="388" type="qcurve" smooth="yes"/>
      <point x="278" y="388"/>
      <point x="224" y="329"/>
      <point x="224" y="265" type="qcurve" smooth="yes"/>
      <point x="224" y="194"/>
      <point x="276" y="128"/>
      <point x="316" y="128" type="qcurve" smooth="yes"/>
      <point x="379" y="128"/>
      <point x="408" y="176" type="qcurve"/>
      <point x="408" y="336" type="line"/>
      <point x="381" y="388"/>
    </contour>
  </outline>
</glyph>
<glyph name="e" format="2">
  <advance width="605"/>
  <unicode hex="0065"/>
  <outline>
    <contour>
      <point x="312" y="528" type="qcurve" smooth="yes"/>
      <point x="432" y="528"/>
      <point x="573" y="407"/>
      <point x="573" y="286" type="qcurve" smooth="yes"/>
      <point x="573" y="239"/>
      <point x="562" y="212" type="qcurve"/>
      <point x="224" y="212" type="line"/>
      <point x="224" y="174"/>
      <point x="281" y="124"/>
      <point x="341" y="124" type="qcurve" smooth="yes"/>
      <point x="391" y="124"/>
      <point x="472" y="156"/>
      <point x="494" y="173" type="qcurve"/>
      <point x="561" y="65" type="line"/>
      <point x="519" y="42"/>
      <point x="463" y="17"/>
      <point x="360" y="-8"/>
      <point x="303" y="-8" type="qcurve" smooth="yes"/>
      <point x="177" y="-8"/>
      <point x="32" y="129"/>
      <point x="32" y="261" type="qcurve" smooth="yes"/>
      <point x="32" y="396"/>
      <point x="181" y="528"/>
    </contour>
    <contour>
      <point x="347" y="399"/>
      <point x="269" y="399"/>
      <point x="224" y="353"/>
      <point x="224" y="310" type="qcurve"/>
      <point x="393" y="310" type="line"/>
      <point x="393" y="315" type="line" smooth="yes"/>
      <point x="393" y="356"/>
    </contour>
  </outline>
</glyph>
<glyph name="f" format="2">
  <advance width="460"/>
  <unicode hex="0066"/>
  <outline>
    <contour>
      <point x="320" y="732" type="qcurve" smooth="yes"/>
      <point x="394" y="732"/>
      <point x="436" y="727" type="qcurve"/>
      <point x="423" y="601" type="line"/>
      <point x="372" y="601" type="line" smooth="yes"/>
      <point x="339" y="601"/>
      <point x="308" y="570"/>
      <point x="308" y="534" type="qcurve" smooth="yes"/>
      <point x="308" y="520" type="line"/>
      <point x="424" y="520" type="line"/>
      <point x="424" y="370" type="line"/>
      <point x="308" y="370" type="line"/>
      <point x="308" y="0" type="line"/>
      <point x="116" y="0" type="line"/>
      <point x="116" y="370" type="line"/>
      <point x="24" y="370" type="line"/>
      <point x="24" y="520" type="line"/>
      <point x="116" y="520" type="line"/>
      <point x="116" y="542" type="line" smooth="yes"/>
      <point x="116" y="634"/>
      <point x="218" y="732"/>
    </contour>
  </outline>
</glyph>
<glyph name="g" format="2">
  <advance width="626"/>
  <unicode hex="0067"/>
  <outline>
    <contour>
      <point x="260" y="412" type="qcurve" smooth="yes"/>
      <point x="199" y="412"/>
      <point x="199" y="357" type="qcurve" smooth="yes"/>
      <point x="199" y="305"/>
      <point x="260" y="305" type="qcurve" smooth="yes"/>
      <point x="324" y="305"/>
      <point x="324" y="355" type="qcurve" smooth="yes"/>
      <point x="324" y="412"/>
    </contour>
    <contour>
      <point x="259" y="528" type="qcurve" smooth="yes"/>
      <point x="385" y="528"/>
      <point x="443" y="479" type="qcurve"/>
      <point x="484" y="520"/>
      <point x="552" y="520" type="qcurve" smooth="yes"/>
      <point x="584" y="520" type="line"/>
      <point x="584" y="379" type="line"/>
      <point x="493" y="379" type="line"/>
      <point x="494" y="371"/>
      <point x="494" y="355" type="qcurve" smooth="yes"/>
      <point x="494" y="279"/>
      <point x="398" y="200"/>
      <point x="299" y="191" type="qcurve" smooth="yes"/>
      <point x="239" y="185"/>
      <point x="202" y="173"/>
      <point x="202" y="161" type="qcurve" smooth="yes"/>
      <point x="202" y="140"/>
      <point x="242" y="140" type="qcurve" smooth="yes"/>
      <point x="419" y="140" type="line" smooth="yes"/>
      <point x="501" y="140"/>
      <point x="594" y="64"/>
      <point x="594" y="-2" type="qcurve" smooth="yes"/>
      <point x="594" y="-102"/>
      <point x="453" y="-191"/>
      <point x="300" y="-191" type="qcurve" smooth="yes"/>
      <point x="203" y="-191"/>
      <point x="33" y="-147"/>
      <point x="-10" y="-125" type="qcurve"/>
      <point x="39" y="-15" type="line"/>
      <point x="73" y="-30"/>
      <point x="216" y="-64"/>
      <point x="294" y="-64" type="qcurve" smooth="yes"/>
      <point x="368" y="-64"/>
      <point x="427" y="-46"/>
      <point x="427" y="-26" type="qcurve" smooth="yes"/>
      <point x="427" y="-14"/>
      <point x="408" y="0"/>
      <point x="393" y="0" type="qcurve" smooth="yes"/>
      <point x="215" y="0" type="line" smooth="yes"/>
      <point x="128" y="0"/>
      <point x="51" y="55"/>
      <point x="51" y="114" type="qcurve" smooth="yes"/>
      <point x="51" y="187"/>
      <point x="146" y="208" type="qcurve"/>
      <point x="91" y="223"/>
      <point x="29" y="302"/>
      <point x="29" y="353" type="qcurve" smooth="yes"/>
      <point x="29" y="528"/>
    </contour>
  </outline>
</glyph>
<glyph name="h" format="2">
  <advance width="637"/>
  <unicode hex="0068"/>
  <outline>
    <contour>
      <point x="57" y="708" type="line"/>
      <point x="249" y="708" type="line"/>
      <point x="249" y="448" type="line"/>
      <point x="290" y="528"/>
      <point x="402" y="528" type="qcurve" smooth="yes"/>
      <point x="488" y="528"/>
      <point x="581" y="417"/>
      <point x="581" y="318" type="qcurve" smooth="yes"/>
      <point x="581" y="0" type="line"/>
      <point x="389" y="0" type="line"/>
      <point x="389" y="304" type="line" smooth="yes"/>
      <point x="389" y="335"/>
      <point x="355" y="370"/>
      <point x="326" y="370" type="qcurve" smooth="yes"/>
      <point x="272" y="370"/>
      <point x="249" y="328" type="qcurve"/>
      <point x="249" y="0" type="line"/>
      <point x="57" y="0" type="line"/>
    </contour>
  </outline>
</glyph>
<glyph name="i" format="2">
  <advance width="346"/>
  <unicode hex="0069"/>
  <outline>
    <contour>
      <point x="10" y="520" type="line"/>
      <point x="286" y="520" type="line"/>
      <point x="286" y="0" type="line"/>
      <point x="94" y="0" type="line"/>
      <point x="94" y="374" type="line"/>
      <point x="10" y="374" type="line"/>
    </contour>
    <contour>
      <point x="152" y="743"/>
      <point x="234" y="743"/>
      <point x="290" y="691"/>
      <point x="290" y="646" type="qcurve" smooth="yes"/>
      <point x="290" y="603"/>
      <point x="234" y="549"/>
      <point x="152" y="549"/>
      <point x="96" y="603"/>
      <point x="96" y="646" type="qcurve" smooth="yes"/>
      <point x="96" y="691"/>
    </contour>
  </outline>
</glyph>
<glyph name="j" format="2">
  <advance width="308"/>
  <unicode hex="006A"/>
  <outline>
    <contour>
      <point x="60" y="520" type="line"/>
      <point x="252" y="520" type="line"/>
      <point x="252" y="22" type="line" smooth="yes"/>
      <point x="252" y="-91"/>
      <point x="149" y="-191"/>
      <point x="11" y="-191" type="qcurve" smooth="yes"/>
      <point x="-10" y="-191" type="line"/>
      <point x="-10" y="-34" type="line"/>
      <point x="11" y="-34" type="line" smooth="yes"/>
      <point x="38" y="-34"/>
      <point x="60" y="-11"/>
      <point x="60" y="16" type="qcurve" smooth="yes"/>
    </contour>
    <contour>
      <point x="115" y="747"/>
      <point x="195" y="747"/>
      <point x="252" y="691"/>
      <point x="252" y="611"/>
      <point x="195" y="554"/>
      <point x="115" y="554"/>
      <point x="58" y="611"/>
      <point x="58" y="691"/>
    </contour>
  </outline>
</glyph>
<glyph name="k" format="2">
  <advance width="630"/>
  <unicode hex="006B"/>
  <outline>
    <contour>
      <point x="64" y="708" type="line"/>
      <point x="256" y="708" type="line"/>
      <point x="256" y="360" type="line"/>
      <point x="297" y="360" type="line"/>
      <point x="406" y="519" type="line"/>
      <point x="610" y="519" type="line"/>
      <point x="436" y="275" type="line"/>
      <point x="624" y="0" type="line"/>
      <point x="418" y="0" type="line"/>
      <point x="297" y="185" type="line"/>
      <point x="256" y="185" type="line"/>
      <point x="256" y="0" type="line"/>
      <point x="64" y="0" type="line"/>
    </contour>
  </outline>
</glyph>
<glyph name="l" format="2">
  <advance width="352"/>
  <unicode hex="006C"/>
  <outline>
    <contour>
      <point x="56" y="772" type="line"/>
      <point x="248" y="772" type="line"/>
      <point x="248" y="196" type="line" smooth="yes"/>
      <point x="248" y="153"/>
      <point x="291" y="153" type="qcurve" smooth="yes"/>
      <point x="292" y="153"/>
      <point x="300" y="154"/>
      <point x="302" y="154" type="qcurve"/>
      <point x="335" y="158" type="line"/>
      <point x="348" y="1" type="line"/>
      <point x="292" y="-8"/>
      <point x="241" y="-8" type="qcurve" smooth="yes"/>
      <point x="159" y="-8"/>
      <point x="56" y="83"/>
      <point x="56" y="159" type="qcurve" smooth="yes"/>
    </contour>
  </outline>
</glyph>
<glyph name="m" format="2">
  <advance width="934"/>
  <unicode hex="006D"/>
  <outline>
    <contour>
      <point x="64" y="520" type="line"/>
      <point x="192" y="520" type="line"/>
      <point x="256" y="448" type="line"/>
      <point x="301" y="528"/>
      <point x="390" y="528" type="qcurve" smooth="yes"/>
      <point x="437" y="528"/>
      <point x="515" y="486"/>
      <point x="532" y="445" type="qcurve"/>
      <point x="558" y="490"/>
      <point x="626" y="528"/>
      <point x="688" y="528" type="qcurve" smooth="yes"/>
      <point x="769" y="528"/>
      <point x="870" y="422"/>
      <point x="870" y="317" type="qcurve" smooth="yes"/>
      <point x="870" y="0" type="line"/>
      <point x="678" y="0" type="line"/>
      <point x="678" y="307" type="line" smooth="yes"/>
      <point x="678" y="384"/>
      <point x="617" y="384" type="qcurve" smooth="yes"/>
      <point x="580" y="384"/>
      <point x="563" y="358" type="qcurve"/>
      <point x="563" y="0" type="line"/>
      <point x="371" y="0" type="line"/>
      <point x="371" y="314" type="line" smooth="yes"/>
      <point x="371" y="384"/>
      <point x="312" y="384" type="qcurve" smooth="yes"/>
      <point x="288" y="384"/>
      <point x="256" y="357" type="qcurve"/>
      <point x="256" y="0" type="line"/>
      <point x="64" y="0" type="line"/>
    </contour>
  </outline>
</glyph>
<glyph name="n" format="2">
  <advance width="652"/>
  <unicode hex="006E"/>
  <outline>
    <contour>
      <point x="64" y="520" type="line"/>
      <point x="213" y="520" type="line"/>
      <point x="256" y="443" type="line"/>
      <point x="298" y="528"/>
      <point x="409" y="528" type="qcurve" smooth="yes"/>
      <point x="495" y="528"/>
      <point x="588" y="417"/>
      <point x="588" y="318" type="qcurve" smooth="yes"/>
      <point x="588" y="0" type="line"/>
      <point x="396" y="0" type="line"/>
      <point x="396" y="304" type="line" smooth="yes"/>
      <point x="396" y="379"/>
      <point x="333" y="379" type="qcurve" smooth="yes"/>
      <point x="309" y="379"/>
      <point x="264" y="349"/>
      <point x="256" y="328" type="qcurve"/>
      <point x="256" y="0" type="line"/>
      <point x="64" y="0" type="line"/>
    </contour>
  </outline>
</glyph>
<glyph name="p" format="2">
  <advance width="660"/>
  <unicode hex="0070"/>
  <outline>
    <contour>
      <point x="344" y="388" type="qcurve" smooth="yes"/>
      <point x="280" y="388"/>
      <point x="252" y="331" type="qcurve"/>
      <point x="252" y="190" type="line"/>
      <point x="266" y="162"/>
      <point x="314" y="128"/>
      <point x="340" y="128" type="qcurve" smooth="yes"/>
      <point x="436" y="128"/>
      <point x="436" y="260" type="qcurve" smooth="yes"/>
      <point x="436" y="321"/>
      <point x="388" y="388"/>
    </contour>
    <contour>
      <point x="64" y="520" type="line"/>
      <point x="214" y="520" type="line"/>
      <point x="252" y="461" type="line"/>
      <point x="295" y="528"/>
      <point x="390" y="528" type="qcurve" smooth="yes"/>
      <point x="494" y="528"/>
      <point x="628" y="377"/>
      <point x="628" y="259" type="qcurve" smooth="yes"/>
      <point x="628" y="140"/>
      <point x="501" y="-8"/>
      <point x="399" y="-8" type="qcurve" smooth="yes"/>
      <point x="299" y="-8"/>
      <point x="252" y="52" type="qcurve"/>
      <point x="252" y="-191" type="line"/>
      <point x="64" y="-191" type="line"/>
    </contour>
  </outline>
</glyph>
<glyph name="q" format="2">
  <advance width="660"/>
  <unicode hex="0071"/>
  <outline>
    <contour>
      <point x="316" y="388" type="qcurve" smooth="yes"/>
      <point x="273" y="388"/>
      <point x="224" y="318"/>
      <point x="224" y="256" type="qcurve" smooth="yes"/>
      <point x="224" y="128"/>
      <point x="320" y="128" type="qcurve" smooth="yes"/>
      <point x="377" y="128"/>
      <point x="408" y="187" type="qcurve"/>
      <point x="408" y="332" type="line"/>
      <point x="375" y="388"/>
    </contour>
    <contour>
      <point x="446" y="520" type="line"/>
      <point x="596" y="520" type="line"/>
      <point x="596" y="-191" type="line"/>
      <point x="408" y="-191" type="line"/>
      <point x="408" y="53" type="line"/>
      <point x="360" y="-8"/>
      <point x="261" y="-8" type="qcurve" smooth="yes"/>
      <point x="159" y="-8"/>
      <point x="32" y="140"/>
      <point x="32" y="259" type="qcurve" smooth="yes"/>
      <point x="32" y="379"/>
      <point x="160" y="528"/>
      <point x="263" y="528" type="qcurve" smooth="yes"/>
      <point x="310" y="528"/>
      <point x="388" y="489"/>
      <point x="408" y="455" type="qcurve"/>
    </contour>
  </outline>
</glyph>
<glyph name="r" format="2">
  <advance width="425"/>
  <unicode hex="0072"/>
  <outline>
    <contour>
      <point x="56" y="520" type="line"/>
      <point x="197" y="520" type="line"/>
      <point x="225" y="420" type="line"/>
      <point x="232" y="469"/>
      <point x="311" y="528"/>
      <point x="368" y="528" type="qcurve" smooth="yes"/>
      <point x="393" y="528"/>
      <point x="409" y="524" type="qcurve"/>
      <point x="395" y="376" type="line"/>
      <point x="355" y="376" type="line" smooth="yes"/>
      <point x="282" y="376"/>
      <point x="248" y="312" type="qcurve"/>
      <point x="248" y="0" type="line"/>
      <point x="56" y="0" type="line"/>
    </contour>
  </outline>
</glyph>
<glyph name="s" format="2">
  <advance width="522"/>
  <unicode hex="0073"/>
  <outline>
    <contour>
      <point x="279" y="528" type="qcurve" smooth="yes"/>
      <point x="416" y="528"/>
      <point x="501" y="459" type="qcurve"/>
      <point x="427" y="361" type="line"/>
      <point x="366" y="404"/>
      <point x="276" y="404" type="qcurve" smooth="yes"/>
      <point x="244" y="404"/>
      <point x="203" y="384"/>
      <point x="203" y="368" type="qcurve" smooth="yes"/>
      <point x="203" y="341"/>
      <point x="265" y="331" type="qcurve" smooth="yes"/>
      <point x="348" y="318" type="line" smooth="yes"/>
      <point x="511" y="292"/>
      <point x="511" y="154" type="qcurve" smooth="yes"/>
      <point x="511" y="-8"/>
      <point x="249" y="-8" type="qcurve" smooth="yes"/>
      <point x="171" y="-8"/>
      <point x="42" y="31"/>
      <point x="12" y="63" type="qcurve"/>
      <point x="85" y="161" type="line"/>
      <point x="105" y="140"/>
      <point x="202" y="112"/>
      <point x="255" y="112" type="qcurve" smooth="yes"/>
      <point x="294" y="112"/>
      <point x="341" y="130"/>
      <point x="341" y="145" type="qcurve" smooth="yes"/>
      <point x="341" y="161"/>
      <point x="312" y="179"/>
      <point x="276" y="184" type="qcurve" smooth="yes"/>
      <point x="198" y="195" type="line" smooth="yes"/>
      <point x="35" y="219"/>
      <point x="33" y="367" type="qcurve" smooth="yes"/>
      <point x="33" y="444"/>
      <point x="161" y="528"/>
    </contour>
  </outline>
</glyph>
<glyph name="t" format="2">
  <advance width="474"/>
  <unicode hex="0074"/>
  <outline>
    <contour>
      <point x="119" y="614" type="line"/>
      <point x="311" y="687" type="line"/>
      <point x="311" y="520" type="line"/>
      <point x="430" y="520" type="line"/>
      <point x="430" y="383" type="line"/>
      <point x="311" y="383" type="line"/>
      <point x="311" y="194" type="line" smooth="yes"/>
      <point x="311" y="138"/>
      <point x="359" y="138" type="qcurve" smooth="yes"/>
      <point x="379" y="138"/>
      <point x="403" y="140" type="qcurve" smooth="yes"/>
      <point x="429" y="143" type="line"/>
      <point x="446" y="5" type="line"/>
      <point x="367" y="-7"/>
      <point x="324" y="-7" type="qcurve" smooth="yes"/>
      <point x="218" y="-7"/>
      <point x="119" y="96"/>
      <point x="119" y="206" type="qcurve" smooth="yes"/>
      <point x="119" y="383" type="line"/>
      <point x="16" y="383" type="line"/>
      <point x="16" y="520" type="line"/>
      <point x="119" y="520" type="line"/>
    </contour>
  </outline>
</glyph>
<glyph name="u" format="2">
  <advance width="635"/>
  <unicode hex="0075"/>
  <outline>
    <contour>
      <point x="56" y="520" type="line"/>
      <point x="248" y="520" type="line"/>
      <point x="248" y="216" type="line" smooth="yes"/>
      <point x="248" y="145"/>
      <point x="310" y="145" type="qcurve" smooth="yes"/>
      <point x="334" y="145"/>
      <point x="376" y="172"/>
      <point x="387" y="192" type="qcurve"/>
      <point x="387" y="520" type="line"/>
      <point x="579" y="520" type="line"/>
      <point x="579" y="0" type="line"/>
      <point x="430" y="0" type="line"/>
      <point x="387" y="79" type="line"/>
      <point x="365" y="40"/>
      <point x="283" y="-8"/>
      <point x="234" y="-8" type="qcurve" smooth="yes"/>
      <point x="148" y="-8"/>
      <point x="56" y="103"/>
      <point x="56" y="202" type="qcurve" smooth="yes"/>
    </contour>
  </outline>
</glyph>
<glyph name="v" format="2">
  <advance width="601"/>
  <unicode hex="0076"/>
  <outline>
    <contour>
      <point x="4" y="520" type="line"/>
      <point x="184" y="520" type="line"/>
      <point x="303" y="173" type="line"/>
      <point x="416" y="520" type="line"/>
      <point x="596" y="520" type="line"/>
      <point x="404" y="0" type="line"/>
      <point x="202" y="0" type="line"/>
    </contour>
  </outline>
</glyph>
<glyph name="w" format="2">
  <advance width="821"/>
  <unicode hex="0077"/>
  <outline>
    <contour>
      <point x="4" y="520" type="line"/>
      <point x="172" y="520" type="line"/>
      <point x="232" y="225" type="line"/>
      <point x="314" y="520" type="line"/>
      <point x="508" y="520" type="line"/>
      <point x="584" y="229" type="line"/>
      <point x="648" y="520" type="line"/>
      <point x="818" y="520" type="line"/>
      <point x="692" y="0" type="line"/>
      <point x="484" y="0" type="line"/>
      <point x="410" y="293" type="line"/>
      <point x="332" y="0" type="line"/>
      <point x="122" y="0" type="line"/>
    </contour>
  </outline>
</glyph>
<glyph name="x" format="2">
  <advance width="568"/>
  <unicode hex="0078"/>
  <outline>
    <contour>
      <point x="4" y="520" type="line"/>
      <point x="199" y="520" type="line"/>
      <point x="286" y="350" type="line"/>
      <point x="374" y="520" type="line"/>
      <point x="564" y="520" type="line"/>
      <point x="403" y="260" type="line"/>
      <point x="564" y="0" type="line"/>
      <point x="374" y="0" type="line"/>
      <point x="288" y="171" type="line"/>
      <point x="199" y="0" type="line"/>
      <point x="4" y="0" type="line"/>
      <point x="164" y="260" type="line"/>
    </contour>
  </outline>
</glyph>
<glyph name="y" format="2">
  <advance width="586"/>
  <unicode hex="0079"/>
  <outline>
    <contour>
      <point x="4" y="520" type="line"/>
      <point x="218" y="520" type="line"/>
      <point x="285" y="300" type="line"/>
      <point x="298" y="206" type="line"/>
      <point x="315" y="300" type="line"/>
      <point x="388" y="520" type="line"/>
      <point x="582" y="520" type="line"/>
      <point x="292" y="-191" type="line"/>
      <point x="112" y="-191" type="line"/>
      <point x="207" y="37" type="line"/>
    </contour>
  </outline>
</glyph>
<glyph name="z" format="2">
  <advance width="564"/>
  <unicode hex="007A"/>
  <outline>
    <contour>
      <point x="40" y="520" type="line"/>
      <point x="508" y="520" type="line"/>
      <point x="508" y="410" type="line"/>
      <point x="286" y="142" type="line"/>
      <point x="524" y="142" type="line"/>
      <point x="524" y="0" type="line"/>
      <point x="40" y="0" type="line"/>
      <point x="40" y="110" type="line"/>
      <point x="276" y="378" type="line"/>
      <point x="40" y="378" type="line"/>
    </contour>
  </outline>
</glyph>
<glyph name="braceleft" format="2">
  <advance width="357"/>
  <unicode hex="007B"/>
  <outline>
    <contour>
      <point x="338" y="819" type="qcurve"/>
      <point x="338" y="675" type="line"/>
      <point x="258" y="675"/>
      <point x="246" y="606" type="qcurve"/>
      <point x="270" y="514" type="line"/>
      <point x="270" y="466"/>
      <point x="202" y="396"/>
      <point x="161" y="384" type="qcurve"/>
      <point x="208" y="367"/>
      <point x="270" y="292"/>
      <point x="270" y="240" type="qcurve"/>
      <point x="246" y="149" type="line"/>
      <point x="248" y="119"/>
      <point x="299" y="80"/>
      <point x="338" y="80" type="qcurve"/>
      <point x="338" y="-64" type="line"/>
      <point x="226" y="-64"/>
      <point x="93" y="59"/>
      <point x="82" y="141" type="qcurve"/>
      <point x="114" y="250" type="line"/>
      <point x="102" y="308"/>
      <point x="42" y="308" type="qcurve"/>
      <point x="42" y="457" type="line"/>
      <point x="102" y="457"/>
      <point x="114" y="506" type="qcurve"/>
      <point x="88" y="610" type="line"/>
      <point x="97" y="704"/>
      <point x="241" y="819"/>
    </contour>
  </outline>
</glyph>
<glyph name="bar" format="2">
  <advance width="227"/>
  <unicode hex="007C"/>
  <outline>
    <contour>
      <point x="77" y="819" type="line"/>
      <point x="205" y="819" type="line"/>
      <point x="205" y="-66" type="line"/>
      <point x="77" y="-66" type="line"/>
    </contour>
  </outline>
</glyph>
<glyph name="braceright" format="2">
  <advance width="357"/>
  <unicode hex="007D"/>
  <outline>
    <contour>
      <point x="42" y="819" type="line"/>
      <point x="139" y="819"/>
      <point x="283" y="704"/>
      <point x="292" y="610" type="qcurve"/>
      <point x="266" y="506" type="line"/>
      <point x="278" y="457"/>
      <point x="338" y="457" type="qcurve"/>
      <point x="338" y="308" type="line"/>
      <point x="278" y="308"/>
      <point x="266" y="250" type="qcurve"/>
      <point x="298" y="141" type="line"/>
      <point x="287" y="59"/>
      <point x="154" y="-64"/>
      <point x="42" y="-64" type="qcurve"/>
      <point x="42" y="80" type="line"/>
      <point x="81" y="80"/>
      <point x="132" y="119"/>
      <point x="134" y="149" type="qcurve"/>
      <point x="110" y="240" type="line"/>
      <point x="110" y="292"/>
      <point x="172" y="367"/>
      <point x="219" y="384" type="qcurve"/>
      <point x="178" y="396"/>
      <point x="110" y="466"/>
      <point x="110" y="514" type="qcurve"/>
      <point x="134" y="606" type="line"/>
      <point x="122" y="675"/>
      <point x="42" y="675" type="qcurve"/>
    </contour>
  </outline>
</glyph>
<glyph name="asciitilde" format="2">
  <advance width="648"/>
  <unicode hex="007E"/>
  <outline>
    <contour>
      <point x="77" y="265" type="line"/>
      <point x="79" y="270"/>
      <point x="86" y="286"/>
      <point x="114" y="328"/>
      <point x="149" y="360"/>
      <point x="212" y="386"/>
      <point x="249" y="386" type="qcurve" smooth="yes"/>
      <point x="287" y="386"/>
      <point x="404" y="291"/>
      <point x="439" y="291" type="qcurve" smooth="yes"/>
      <point x="465" y="291"/>
      <point x="508" y="338"/>
      <point x="516" y="361" type="qcurve" smooth="yes"/>
      <point x="525" y="384" type="line"/>
      <point x="585" y="343" type="line"/>
      <point x="583" y="338"/>
      <point x="575" y="322"/>
      <point x="547" y="282"/>
      <point x="515" y="251"/>
      <point x="461" y="225"/>
      <point x="431" y="225" type="qcurve" smooth="yes"/>
      <point x="396" y="225"/>
      <point x="326" y="273"/>
      <point x="264" y="321"/>
      <point x="237" y="321" type="qcurve" smooth="yes"/>
      <point x="204" y="321"/>
      <point x="149" y="273"/>
      <point x="138" y="249" type="qcurve" smooth="yes"/>
      <point x="128" y="225" type="line"/>
    </contour>
  </outline>
</glyph>
<glyph name="sterling" format="2">
  <advance width="636"/>
  <unicode hex="00A3"/>
  <outline>
    <contour>
      <point x="357" y="716" type="qcurve" smooth="yes"/>
      <point x="487" y="716"/>
      <point x="594" y="636" type="qcurve"/>
      <point x="513" y="520" type="line"/>
      <point x="439" y="572"/>
      <point x="360" y="572" type="qcurve" smooth="yes"/>
      <point x="318" y="572"/>
      <point x="273" y="532"/>
      <point x="273" y="496" type="qcurve" smooth="yes"/>
      <point x="273" y="464"/>
      <point x="281" y="438" type="qcurve"/>
      <point x="482" y="438" type="line"/>
      <point x="482" y="285" type="line"/>
      <point x="343" y="285" type="line"/>
      <point x="343" y="283"/>
      <point x="344" y="271"/>
      <point x="344" y="268" type="qcurve" smooth="yes"/>
      <point x="344" y="189"/>
      <point x="282" y="150" type="qcurve"/>
      <point x="588" y="150" type="line"/>
      <point x="588" y="0" type="line"/>
      <point x="59" y="0" type="line"/>
      <point x="59" y="156" type="line"/>
      <point x="102" y="156"/>
      <point x="168" y="207"/>
      <point x="168" y="267" type="qcurve" smooth="yes"/>
      <point x="168" y="279"/>
      <point x="167" y="285" type="qcurve"/>
      <point x="33" y="285" type="line"/>
      <point x="33" y="438" type="line"/>
      <point x="108" y="438" type="line"/>
      <point x="97" y="471"/>
      <point x="97" y="510" type="qcurve" smooth="yes"/>
      <point x="97" y="599"/>
      <point x="239" y="716"/>
    </contour>
  </outline>
</glyph>
<glyph name="currency" format="2">
  <advance width="720"/>
  <unicode hex="00A4"/>
  <outline>
    <contour>
      <point x="528" y="220" type="line"/>
      <point x="692" y="56" type="line"/>
      <point x="589" y="-47" type="line"/>
      <point x="425" y="116" type="line"/>
    </contour>
    <contour>
      <point x="295" y="116" type="line"/>
      <point x="131" y="-47" type="line"/>
      <point x="28" y="56" type="line"/>
      <point x="192" y="219" type="line"/>
    </contour>
    <contour>
      <point x="193" y="302" type="line"/>
      <point x="29" y="466" type="line"/>
      <point x="131" y="568" type="line"/>
      <point x="295" y="405" type="line"/>
    </contour>
    <contour>
      <point x="424" y="404" type="line"/>
      <point x="589" y="568" type="line"/>
      <point x="692" y="465" type="line"/>
      <point x="527" y="301" type="line"/>
    </contour>
    <contour>
      <point x="405" y="364"/>
      <point x="315" y="364"/>
      <point x="260" y="304"/>
      <point x="260" y="214"/>
      <point x="314" y="155"/>
      <point x="360" y="155" type="qcurve" smooth="yes"/>
      <point x="405" y="155"/>
      <point x="461" y="214"/>
      <point x="461" y="304"/>
    </contour>
    <contour>
      <point x="463" y="6"/>
      <point x="257" y="6"/>
      <point x="112" y="155"/>
      <point x="112" y="365"/>
      <point x="257" y="513"/>
      <point x="463" y="513"/>
      <point x="608" y="365"/>
      <point x="608" y="155"/>
    </contour>
  </outline>
</glyph>
<glyph name="yen" format="2">
  <advance width="647"/>
  <unicode hex="00A5"/>
  <outline>
    <contour>
      <point x="81" y="379" type="line"/>
      <point x="570" y="379" type="line"/>
      <point x="570" y="271" type="line"/>
      <point x="81" y="271" type="line"/>
    </contour>
    <contour>
      <point x="81" y="190" type="line"/>
      <point x="570" y="190" type="line"/>
      <point x="570" y="82" type="line"/>
      <point x="81" y="82" type="line"/>
    </contour>
    <contour>
      <point x="4" y="708" type="line"/>
      <point x="188" y="708" type="line"/>
      <point x="325" y="406" type="line"/>
      <point x="458" y="708" type="line"/>
      <point x="643" y="708" type="line"/>
      <point x="420" y="270" type="line"/>
      <point x="420" y="0" type="line"/>
      <point x="228" y="0" type="line"/>
      <point x="228" y="269" type="line"/>
    </contour>
  </outline>
</glyph>
<glyph name="section" format="2">
  <advance width="617"/>
  <unicode hex="00A7"/>
  <outline>
    <contour>
      <point x="344" y="768" type="qcurve" smooth="yes"/>
      <point x="405" y="768"/>
      <point x="546" y="726"/>
      <point x="591" y="694" type="qcurve"/>
      <point x="525" y="572" type="line"/>
      <point x="442" y="623"/>
      <point x="360" y="623" type="qcurve" smooth="yes"/>
      <point x="301" y="623"/>
      <point x="248" y="594"/>
      <point x="248" y="561" type="qcurve" smooth="yes"/>
      <point x="248" y="527"/>
      <point x="285" y="501"/>
      <point x="354" y="486" type="qcurve" smooth="yes"/>
      <point x="402" y="474" type="line" smooth="yes"/>
      <point x="496" y="451"/>
      <point x="588" y="351"/>
      <point x="588" y="267" type="qcurve" smooth="yes"/>
      <point x="588" y="169"/>
      <point x="514" y="108" type="qcurve"/>
      <point x="548" y="71"/>
      <point x="548" y="6" type="qcurve" smooth="yes"/>
      <point x="548" y="-90"/>
      <point x="400" y="-191"/>
      <point x="260" y="-191" type="qcurve" smooth="yes"/>
      <point x="206" y="-191"/>
      <point x="68" y="-155"/>
      <point x="17" y="-129" type="qcurve"/>
      <point x="78" y="-2" type="line"/>
      <point x="108" y="-22"/>
      <point x="213" y="-51"/>
      <point x="256" y="-51" type="qcurve" smooth="yes"/>
      <point x="320" y="-51"/>
      <point x="374" y="-19"/>
      <point x="374" y="18" type="qcurve" smooth="yes"/>
      <point x="374" y="82"/>
      <point x="288" y="99" type="qcurve" smooth="yes"/>
      <point x="189" y="119" type="line" smooth="yes"/>
      <point x="103" y="138"/>
      <point x="28" y="226"/>
      <point x="28" y="308" type="qcurve" smooth="yes"/>
      <point x="28" y="351"/>
      <point x="69" y="440"/>
      <point x="101" y="464" type="qcurve"/>
      <point x="68" y="500"/>
      <point x="68" y="580" type="qcurve" smooth="yes"/>
      <point x="68" y="664"/>
      <point x="220" y="768"/>
    </contour>
    <contour>
      <point x="202" y="389" type="qcurve"/>
      <point x="180" y="371"/>
      <point x="180" y="330" type="qcurve" smooth="yes"/>
      <point x="180" y="293"/>
      <point x="216" y="255"/>
      <point x="259" y="246" type="qcurve" smooth="yes"/>
      <point x="347" y="227" type="line" smooth="yes"/>
      <point x="390" y="218"/>
      <point x="413" y="199" type="qcurve"/>
      <point x="436" y="214"/>
      <point x="436" y="251" type="qcurve" smooth="yes"/>
      <point x="436" y="321"/>
      <point x="352" y="340" type="qcurve" smooth="yes"/>
      <point x="257" y="362" type="line" smooth="yes"/>
      <point x="218" y="371"/>
    </contour>
  </outline>
</glyph>
<glyph name="mu" format="2">
  <advance width="687"/>
  <unicode hex="00B5"/>
  <outline>
    <contour>
      <point x="56" y="520" type="line"/>
      <point x="248" y="520" type="line"/>
      <point x="248" y="158" type="line"/>
      <point x="249" y="154"/>
      <point x="270" y="139"/>
      <point x="313" y="123"/>
      <point x="337" y="123" type="qcurve" smooth="yes"/>
      <point x="378" y="123"/>
      <point x="421" y="168"/>
      <point x="421" y="210" type="qcurve" smooth="yes"/>
      <point x="421" y="520" type="line"/>
      <point x="601" y="520" type="line"/>
      <point x="601" y="162" type="line" smooth="yes"/>
      <point x="601" y="108"/>
      <point x="659" y="108" type="qcurve" smooth="yes"/>
      <point x="667" y="108" type="line"/>
      <point x="667" y="0" type="line"/>
      <point x="629" y="-8"/>
      <point x="574" y="-8" type="qcurve" smooth="yes"/>
      <point x="524" y="-8"/>
      <point x="447" y="29"/>
      <point x="436" y="55" type="qcurve"/>
      <point x="423" y="25"/>
      <point x="365" y="-8"/>
      <point x="333" y="-8" type="qcurve" smooth="yes"/>
      <point x="252" y="-8"/>
      <point x="210" y="41" type="qcurve"/>
      <point x="248" y="-3"/>
      <point x="248" y="-44" type="qcurve" smooth="yes"/>
      <point x="248" y="-192" type="line"/>
      <point x="56" y="-192" type="line"/>
    </contour>
  </outline>
</glyph>
<glyph name="paragraph" format="2">
  <advance width="543"/>
  <unicode hex="00B6"/>
  <outline>
    <contour>
      <point x="370" y="0" type="line"/>
      <point x="370" y="708" type="line"/>
      <point x="514" y="708" type="line"/>
      <point x="514" y="644" type="line"/>
      <point x="446" y="644" type="line"/>
      <point x="446" y="65" type="line"/>
      <point x="514" y="65" type="line"/>
      <point x="514" y="0" type="line"/>
    </contour>
    <contour>
      <point x="38" y="544" type="qcurve" smooth="yes"/>
      <point x="38" y="616"/>
      <point x="136" y="708"/>
      <point x="212" y="708" type="qcurve" smooth="yes"/>
      <point x="302" y="708" type="line"/>
      <point x="302" y="0" type="line"/>
      <point x="226" y="0" type="line"/>
      <point x="226" y="367" type="line"/>
      <point x="212" y="367" type="line" smooth="yes"/>
      <point x="133" y="367"/>
      <point x="38" y="464"/>
    </contour>
  </outline>
</glyph>
<glyph name="AE" format="2">
  <advance width="941"/>
  <unicode hex="00C6"/>
  <outline>
    <contour>
      <point x="346" y="708" type="line"/>
      <point x="918" y="708" type="line"/>
      <point x="918" y="557" type="line"/>
      <point x="635" y="557" type="line"/>
      <point x="635" y="444" type="line"/>
      <point x="840" y="444" type="line"/>
      <point x="840" y="293" type="line"/>
      <point x="635" y="293" type="line"/>
      <point x="635" y="150" type="line"/>
      <point x="918" y="150" type="line"/>
      <point x="918" y="0" type="line"/>
      <point x="443" y="0" type="line"/>
      <point x="443" y="153" type="line"/>
      <point x="271" y="153" type="line"/>
      <point x="198" y="0" type="line"/>
      <point x="-4" y="0" type="line"/>
    </contour>
    <contour>
      <point x="443" y="556" type="line"/>
      <point x="326" y="304" type="line"/>
      <point x="443" y="304" type="line"/>
    </contour>
  </outline>
</glyph>
<glyph name="Thorn" format="2">
  <advance width="620"/>
  <unicode hex="00DE"/>
  <outline>
    <contour>
      <point x="64" y="708" type="line"/>
      <point x="256" y="708" type="line"/>
      <point x="256" y="592" type="line"/>
      <point x="322" y="592" type="line" smooth="yes"/>
      <point x="588" y="592"/>
      <point x="588" y="360" type="qcurve" smooth="yes"/>
      <point x="588" y="258"/>
      <point x="454" y="127"/>
      <point x="316" y="127" type="qcurve" smooth="yes"/>
      <point x="256" y="127" type="line"/>
      <point x="256" y="0" type="line"/>
      <point x="64" y="0" type="line"/>
    </contour>
    <contour>
      <point x="256" y="452" type="line"/>
      <point x="256" y="267" type="line"/>
      <point x="312" y="267" type="line" smooth="yes"/>
      <point x="353" y="267"/>
      <point x="400" y="314"/>
      <point x="400" y="406"/>
      <point x="350" y="452"/>
      <point x="312" y="452" type="qcurve" smooth="yes"/>
    </contour>
  </outline>
</glyph>
<glyph name="ae" format="2">
  <advance width="886"/>
  <unicode hex="00E6"/>
  <outline>
    <contour>
      <point x="254" y="528" type="qcurve" smooth="yes"/>
      <point x="310" y="528"/>
      <point x="390" y="496"/>
      <point x="428" y="458" type="qcurve"/>
      <point x="447" y="488"/>
      <point x="541" y="528"/>
      <point x="593" y="528" type="qcurve" smooth="yes"/>
      <point x="713" y="528"/>
      <point x="854" y="407"/>
      <point x="854" y="286" type="qcurve" smooth="yes"/>
      <point x="854" y="239"/>
      <point x="843" y="212" type="qcurve"/>
      <point x="505" y="212" type="line"/>
      <point x="505" y="174"/>
      <point x="562" y="124"/>
      <point x="622" y="124" type="qcurve" smooth="yes"/>
      <point x="672" y="124"/>
      <point x="753" y="156"/>
      <point x="775" y="173" type="qcurve"/>
      <point x="842" y="65" type="line"/>
      <point x="800" y="42"/>
      <point x="744" y="17"/>
      <point x="641" y="-8"/>
      <point x="584" y="-8" type="qcurve" smooth="yes"/>
      <point x="528" y="-8"/>
      <point x="432" y="37"/>
      <point x="410" y="72" type="qcurve"/>
      <point x="367" y="27"/>
      <point x="271" y="-8"/>
      <point x="194" y="-8" type="qcurve" smooth="yes"/>
      <point x="112" y="-8"/>
      <point x="24" y="78"/>
      <point x="24" y="156" type="qcurve" smooth="yes"/>
      <point x="24" y="230"/>
      <point x="146" y="316"/>
      <point x="251" y="316" type="qcurve" smooth="yes"/>
      <point x="326" y="316" type="line"/>
      <point x="326" y="333" type="line" smooth="yes"/>
      <point x="326" y="406"/>
      <point x="234" y="406" type="qcurve" smooth="yes"/>
      <point x="200" y="406"/>
      <point x="126" y="385"/>
      <point x="108" y="371" type="qcurve"/>
      <point x="53" y="473" type="line"/>
      <point x="138" y="528"/>
    </contour>
    <contour>
      <point x="326" y="205" type="line"/>
      <point x="262" y="205" type="line" smooth="yes"/>
      <point x="208" y="205"/>
      <point x="208" y="162" type="qcurve" smooth="yes"/>
      <point x="208" y="141"/>
      <point x="235" y="117"/>
      <point x="258" y="117" type="qcurve" smooth="yes"/>
      <point x="305" y="117"/>
      <point x="326" y="155" type="qcurve"/>
    </contour>
    <contour>
      <point x="628" y="399"/>
      <point x="550" y="399"/>
      <point x="505" y="353"/>
      <point x="505" y="310" type="qcurve"/>
      <point x="674" y="310" type="line"/>
      <point x="674" y="315" type="line" smooth="yes"/>
      <point x="674" y="356"/>
    </contour>
  </outline>
</glyph>
<glyph name="eth" format="2">
  <advance width="640"/>
  <unicode hex="00F0"/>
  <outline>
    <contour>
      <point x="148" y="716" type="qcurve"/>
      <point x="374" y="716" type="line"/>
      <point x="391" y="705"/>
      <point x="405" y="694" type="qcurve"/>
      <point x="564" y="716" type="line"/>
      <point x="564" y="608" type="line"/>
      <point x="503" y="599" type="line"/>
      <point x="616" y="456"/>
      <point x="616" y="259" type="qcurve" smooth="yes"/>
      <point x="616" y="134"/>
      <point x="453" y="-7"/>
      <point x="309" y="-7" type="qcurve" smooth="yes"/>
      <point x="24" y="-7"/>
      <point x="24" y="274" type="qcurve" smooth="yes"/>
      <point x="24" y="396"/>
      <point x="149" y="528"/>
      <point x="265" y="528" type="qcurve" smooth="yes"/>
      <point x="340" y="528"/>
      <point x="397" y="468" type="qcurve"/>
      <point x="366" y="522"/>
      <point x="323" y="571" type="qcurve"/>
      <point x="127" y="541" type="line"/>
      <point x="127" y="656" type="line"/>
      <point x="221" y="669" type="line"/>
      <point x="183" y="699"/>
    </contour>
    <contour>
      <point x="319" y="393" type="qcurve" smooth="yes"/>
      <point x="272" y="393"/>
      <point x="216" y="325"/>
      <point x="216" y="269" type="qcurve" smooth="yes"/>
      <point x="216" y="153"/>
      <point x="312" y="153" type="qcurve" smooth="yes"/>
      <point x="364" y="153"/>
      <point x="424" y="215"/>
      <point x="424" y="268" type="qcurve" smooth="yes"/>
      <point x="424" y="307"/>
      <point x="414" y="351" type="qcurve"/>
      <point x="373" y="393"/>
    </contour>
  </outline>
</glyph>
<glyph name="oslash" format="2">
  <advance width="635"/>
  <unicode hex="00F8"/>
  <outline>
    <contour>
      <point x="447" y="520" type="line"/>
      <point x="587" y="520" type="line"/>
      <point x="183" y="0" type="line"/>
      <point x="43" y="0" type="line"/>
    </contour>
    <contour>
      <point x="317" y="387" type="qcurve" smooth="yes"/>
      <point x="269" y="387"/>
      <point x="224" y="325"/>
      <point x="224" y="254" type="qcurve" smooth="yes"/>
      <point x="224" y="189"/>
      <point x="268" y="134"/>
      <point x="317" y="134" type="qcurve" smooth="yes"/>
      <point x="364" y="134"/>
      <point x="411" y="193"/>
      <point x="411" y="258" type="qcurve" smooth="yes"/>
      <point x="411" y="387"/>
    </contour>
    <contour>
      <point x="185" y="528"/>
      <point x="449" y="528"/>
      <point x="603" y="386"/>
      <point x="603" y="136"/>
      <point x="448" y="-8"/>
      <point x="317" y="-8" type="qcurve" smooth="yes"/>
      <point x="188" y="-8"/>
      <point x="32" y="135"/>
      <point x="32" y="259" type="qcurve" smooth="yes"/>
      <point x="32" y="387"/>
    </contour>
  </outline>
</glyph>
<glyph name="dotlessi" format="2">
  <advance width="346"/>
  <unicode hex="0131"/>
  <outline>
    <contour>
      <point x="10" y="520" type="line"/>
      <point x="286" y="520" type="line"/>
      <point x="286" y="0" type="line"/>
      <point x="94" y="0" type="line"/>
      <point x="94" y="374" type="line"/>
      <point x="10" y="374" type="line"/>
    </contour>
  </outline>
</glyph>
<glyph name="uni0302" format="2">
  <unicode hex="0302"/>
  <outline>
    <contour>
      <point x="-33" y="930" type="line"/>
      <point x="33" y="930" type="line"/>
      <point x="202" y="810" type="line"/>
      <point x="136" y="716" type="line"/>
      <point x="0" y="806" type="line"/>
      <point x="-144" y="716" type="line"/>
      <point x="-202" y="810" type="line"/>
    </contour>
  </outline>
</glyph>
<glyph name="tildecomb" format="2">
  <unicode hex="0303"/>
  <outline>
    <contour>
      <point x="-83" y="920" type="qcurve" smooth="yes"/>
      <point x="-41" y="920"/>
      <point x="28" y="873"/>
      <point x="55" y="873" type="qcurve" smooth="yes"/>
      <point x="79" y="873"/>
      <point x="109" y="896"/>
      <point x="109" y="917" type="qcurve"/>
      <point x="231" y="917" type="line"/>
      <point x="231" y="835"/>
      <point x="148" y="748"/>
      <point x="82" y="748" type="qcurve" smooth="yes"/>
      <point x="42" y="748"/>
      <point x="-34" y="801"/>
      <point x="-56" y="801" type="qcurve" smooth="yes"/>
      <point x="-105" y="801"/>
      <point x="-105" y="752" type="qcurve"/>
      <point x="-231" y="752" type="line"/>
      <point x="-231" y="825"/>
      <point x="-155" y="920"/>
    </contour>
  </outline>
</glyph>
<glyph name="uni0308" format="2">
  <unicode hex="0308"/>
  <outline>
    <contour>
      <point x="-140" y="934"/>
      <point x="-70" y="934"/>
      <point x="-20" y="884"/>
      <point x="-20" y="814"/>
      <point x="-70" y="764"/>
      <point x="-140" y="764"/>
      <point x="-190" y="814"/>
      <point x="-190" y="884"/>
    </contour>
    <contour>
      <point x="70" y="934"/>
      <point x="140" y="934"/>
      <point x="190" y="884"/>
      <point x="190" y="814"/>
      <point x="140" y="764"/>
      <point x="70" y="764"/>
      <point x="20" y="814"/>
      <point x="20" y="884"/>
    </contour>
  </outline>
</glyph>
<glyph name="uni030A" format="2">
  <unicode hex="030A"/>
  <outline>
    <contour>
      <point x="-49" y="958"/>
      <point x="49" y="958"/>
      <point x="118" y="890"/>
      <point x="118" y="790"/>
      <point x="49" y="722"/>
      <point x="-49" y="722"/>
      <point x="-118" y="790"/>
      <point x="-118" y="890"/>
    </contour>
    <contour>
      <point x="14" y="872"/>
      <point x="-14" y="872"/>
      <point x="-31" y="855"/>
      <point x="-31" y="825"/>
      <point x="-14" y="808"/>
      <point x="14" y="808"/>
      <point x="31" y="825"/>
      <point x="31" y="855"/>
    </contour>
  </outline>
</glyph>
<glyph name="uni0327" format="2">
  <unicode hex="0327"/>
  <outline>
    <contour>
      <point x="-83" y="8" type="line"/>
      <point x="89" y="8" type="line"/>
      <point x="89" y="-51" type="line" smooth="yes"/>
      <point x="89" y="-134"/>
      <point x="-20" y="-224"/>
      <point x="-101" y="-224" type="qcurve" smooth="yes"/>
      <point x="-152" y="-224"/>
      <point x="-173" y="-215" type="qcurve"/>
      <point x="-160" y="-76" type="line"/>
      <point x="-105" y="-76" type="line" smooth="yes"/>
      <point x="-83" y="-76"/>
      <point x="-83" y="-54" type="qcurve" smooth="yes"/>
    </contour>
  </outline>
</glyph>
<glyph name="Euro" format="2">
  <advance width="715"/>
  <unicode hex="20AC"/>
  <outline>
    <contour>
      <point x="444" y="716" type="qcurve" smooth="yes"/>
      <point x="574" y="716"/>
      <point x="680" y="646" type="qcurve"/>
      <point x="625" y="534" type="line"/>
      <point x="538" y="586"/>
      <point x="442" y="586" type="qcurve" smooth="yes"/>
      <point x="389" y="586"/>
      <point x="320" y="549"/>
      <point x="296" y="498" type="qcurve"/>
      <point x="557" y="498" type="line"/>
      <point x="516" y="378" type="line"/>
      <point x="276" y="378" type="line"/>
      <point x="276" y="353" type="line"/>
      <point x="276" y="325" type="line"/>
      <point x="502" y="325" type="line"/>
      <point x="461" y="205" type="line"/>
      <point x="290" y="205" type="line"/>
      <point x="311" y="122"/>
      <point x="447" y="122" type="qcurve" smooth="yes"/>
      <point x="501" y="122"/>
      <point x="607" y="152"/>
      <point x="640" y="171" type="qcurve"/>
      <point x="683" y="57" type="line"/>
      <point x="622" y="23"/>
      <point x="517" y="-8"/>
      <point x="439" y="-8" type="qcurve" smooth="yes"/>
      <point x="182" y="-8"/>
      <point x="111" y="205" type="qcurve"/>
      <point x="23" y="205" type="line"/>
      <point x="23" y="325" type="line"/>
      <point x="99" y="325" type="line"/>
      <point x="99" y="353" type="line"/>
      <point x="99" y="378" type="line"/>
      <point x="23" y="378" type="line"/>
      <point x="23" y="498" type="line"/>
      <point x="116" y="498" type="line"/>
      <point x="165" y="620"/>
      <point x="316" y="716"/>
    </contour>
  </outline>
</glyph>
